<?xml version="1.0" encoding="UTF-8" standalone="no"?><svg xmlns="http://www.w3.org/2000/svg" width="422.1" height="136.6" viewBox="0 0 422.1 136.6"><path d="M108.8,68.4H84.1V7.2h23.8c11.3,0,18.5,6.4,18.5,16.8a13.87,13.87,0,0,1-8.3,13c4.7,1.9,9.2,6.5,9.2,14.2C127.3,62.4,119.7,68.4,108.8,68.4Zm-1.7-52.8H93.4V33.1h13.8c5.9,0,10-3.1,10-8.8S113.1,15.6,107.1,15.6Zm.9,25.8H93.4V60.1H108c6.4,0,10.1-4,10.1-9.4S114.4,41.4,108,41.4Z" fill="#000023"/><path d="M159.5,68.4V64a16.37,16.37,0,0,1-22.4.9c-3.4-3.3-4.4-7.4-4.4-12.3V24.8h8.8V51.4c0,6.8,3.9,9.7,8.8,9.7s9-3,9-9.7V24.8h8.8V68.4Z" fill="#000023"/><path d="M199.4,35.1c-2-2-3.5-2.9-6.5-2.9-4.7,0-8.7,3.8-8.7,9.8V68.5h-8.8V24.8H184v4.7c2.2-3.1,6.7-5.2,11.6-5.2A13.5,13.5,0,0,1,206,28.4Z" fill="#000023"/><path d="M239.3,65.1A14.76,14.76,0,0,1,228.7,69c-4.6,0-8.3-1.1-11.4-5V86.1h-8.8V24.8h8.6v4.6c3.3-4,6.9-5.2,11.5-5.2s8.3,1.5,10.7,3.9c4.2,4.3,4.9,11.3,4.9,18.4S243.5,60.8,239.3,65.1ZM226.4,32.2c-8,0-9.1,6.7-9.1,14.4s1.1,14.5,9.1,14.5,9-6.8,9-14.5S234.3,32.2,226.4,32.2Z" fill="#000023"/><path d="M276.8,69c-9.2,0-15.7-2.2-21.7-8.1l6.1-6.1c4.5,4.5,9.5,5.9,15.7,5.9,8.1,0,12.6-3.4,12.6-9.5,0-2.8-.7-4.9-2.4-6.4-1.5-1.4-3.6-2.2-6.7-2.6l-7.2-1c-5-.8-8.9-2.3-11.5-4.9-3-2.8-4.5-6.7-4.5-11.8,0-10.7,7.7-17.9,20.5-17.9,8.2,0,13.8,2.1,19,7l-5.9,5.9c-3.8-3.6-8.2-4.7-13.5-4.7-7.2,0-11.1,4-11.1,9.5a7.38,7.38,0,0,0,2.2,5.6c1.5,1.4,3.4,2.2,6.7,2.8l7.3,1.1c5.6.9,8.7,2.2,11.4,4.5,3.3,3,5,7.2,5,12.6C298.8,62.2,289.7,69,276.8,69Z" fill="#000023"/><path d="M330.1,68.4V64a16.37,16.37,0,0,1-22.4.9c-3.3-3.3-4.4-7.4-4.4-12.3V24.8h8.8V51.4c0,6.8,3.9,9.7,8.8,9.7s9-3,9-9.7V24.8h8.8V68.4Z" fill="#000023"/><path d="M345.7,16.2V7H355v9.3Zm.3,52.2V24.8h8.8V68.4Z" fill="#000023"/><path d="M375.4,68.4c-8.2,0-12-5.8-12-12.1V31.5h-5V24.8h5V12.4h8.8V24.9h8.4v6.7h-8.4V55.9c0,3.2,1.5,5.1,4.8,5.1h3.6v7.5l-5.2-.1Z" fill="#000023"/><path d="M391,49.2c0,7.6,3.9,12.2,11.1,12.2,4.9,0,7.5-1.4,10.6-4.5l5.6,5.2c-4.5,4.5-8.7,6.8-16.3,6.8-10.9,0-19.6-5.8-19.6-22.4,0-14.2,7.3-22.3,18.5-22.3,11.7,0,18.5,8.4,18.5,21.2v3.7Zm18.4-12a9.54,9.54,0,0,0-12.7-4.6,9.78,9.78,0,0,0-4.6,4.6,13.46,13.46,0,0,0-1.1,5.9h19.6a14.48,14.48,0,0,0-1.2-5.9Z" fill="#000023"/><rect x="2.8" y="6.9" width="61.8" height="61.8" fill="#5b4fff"/><polygon points="36.2 60.2 31.4 60.2 31.4 53 37.8 45.1 31.4 45.1 31.4 35.4 19.6 35.4 31.4 20.9 31.4 15.5 36.2 15.5 36.2 22.6 29.7 30.6 36.2 30.6 36.2 40.3 47.9 40.3 36.2 54.7 36.2 60.2" fill="#fff"/><path d="M96.5,115.4H86.7v14.2H84.2V96.1H96.5c5.8,0,10.1,3.5,10.1,9.7S102.3,115.4,96.5,115.4Zm-.3-17H86.7v14.8h9.5c4.7,0,7.9-2.3,7.9-7.4s-3.2-7.4-7.9-7.4Z" fill="#5b4fff"/><path d="M119,108.8c-3.9,0-6.1,3.2-6.1,6.9v14h-2.4V107h2.4v3a7.6,7.6,0,0,1,6.6-3.3,7,7,0,0,1,5.5,2.2l-1.7,1.7A5.46,5.46,0,0,0,119,108.8Z" fill="#5b4fff"/><path d="M141.2,127.4a9.26,9.26,0,0,1-12.6,0c-2.4-2.4-2.8-5.9-2.8-9.1s.4-6.7,2.8-9.1a9.26,9.26,0,0,1,12.6,0c2.4,2.4,2.8,5.9,2.8,9.1S143.6,125,141.2,127.4Zm-1.6-16.7a6.64,6.64,0,0,0-9.4,0c-1.9,1.9-2,5-2,7.6s.1,5.7,2,7.6a6.64,6.64,0,0,0,9.4,0c1.9-1.9,2-5,2-7.6s-.1-5.7-2-7.6Z" fill="#5b4fff"/><path d="M151.3,108.8v20.9h-2.4V108.8h-3.1V107h3.1v-4.9c0-3.4,1.9-5.9,5.5-5.9h2.1v2.1h-1.6c-2.4,0-3.5,1.4-3.5,3.8V107h5.1v1.8Z" fill="#5b4fff"/><path d="M160.1,118.8c0,5.8,2.5,9,7.4,9a8,8,0,0,0,6.3-2.7l1.8,1.4a10.68,10.68,0,0,1-8.2,3.5c-6.3,0-9.6-4-9.6-11.6,0-7.3,3.4-11.6,9.1-11.6s9.1,4.1,9.1,11.1V119Zm12.6-6.2a6.09,6.09,0,0,0-5.9-3.8,6.39,6.39,0,0,0-5.9,3.8,10.6,10.6,0,0,0-.8,4.3h13.4A12.6,12.6,0,0,0,172.7,112.6Z" fill="#5b4fff"/><path d="M187.9,129.9c-4,0-6.9-1-9.2-3.2l1.6-1.7a10.25,10.25,0,0,0,7.4,2.8c4.5,0,6.8-1.6,6.8-4.6,0-2.4-1.3-3.5-4.3-3.8l-3.8-.3c-4.6-.4-6.8-2.4-6.8-5.9,0-4,3.2-6.5,8.1-6.5a13.25,13.25,0,0,1,8,2.4l-1.6,1.6a10.48,10.48,0,0,0-6.4-1.9c-3.8,0-5.8,1.6-5.8,4.4,0,2.4,1.4,3.5,4.6,3.8l3.7.3c3.8.4,6.6,1.5,6.6,5.9C197,127.3,193.5,129.9,187.9,129.9Z" fill="#5b4fff"/><path d="M208.6,129.9c-4,0-6.9-1-9.2-3.2L201,125a9.79,9.79,0,0,0,7.4,2.8c4.5,0,6.8-1.6,6.8-4.6,0-2.4-1.3-3.5-4.3-3.8l-3.8-.3c-4.6-.4-6.8-2.4-6.8-5.9,0-4,3.2-6.5,8.1-6.5a13.25,13.25,0,0,1,8,2.4l-1.6,1.6a10.48,10.48,0,0,0-6.4-1.9c-3.8,0-5.8,1.6-5.8,4.4,0,2.4,1.4,3.5,4.6,3.8l3.7.3c3.8.4,6.6,1.5,6.6,5.9C217.7,127.3,214.2,129.9,208.6,129.9Z" fill="#5b4fff"/><path d="M221.2,99.1v-3h3v3Zm.3,30.5V107h2.4v22.7Z" fill="#5b4fff"/><path d="M243.8,127.4a9.26,9.26,0,0,1-12.6,0c-2.4-2.4-2.8-5.9-2.8-9.1s.4-6.7,2.8-9.1a9.26,9.26,0,0,1,12.6,0c2.4,2.4,2.8,5.9,2.8,9.1S246.2,125,243.8,127.4Zm-1.6-16.7a6.64,6.64,0,0,0-9.4,0c-1.9,1.9-2,5-2,7.6s.1,5.7,2,7.6a6.64,6.64,0,0,0,9.4,0c1.9-1.9,2-5,2-7.6S244.1,112.6,242.2,110.7Z" fill="#5b4fff"/><path d="M266.3,129.6V115.5c0-4.4-2.2-6.8-6.3-6.8s-6.4,2.4-6.4,6.8v14.1h-2.4V107h2.4v2.7a8.33,8.33,0,0,1,11.7-1.7,8.42,8.42,0,0,1,3.3,7.2v14.5Z" fill="#5b4fff"/><path d="M287.6,129.6v-2.3c-1.9,1.9-3.7,2.5-6.9,2.5-3.4,0-5.2-.6-6.7-2.1a6.56,6.56,0,0,1-1.7-4.4c0-4.2,3-6.6,7.9-6.6h7.3v-2.5c0-3.6-1.7-5.6-6.4-5.6-3.2,0-4.8.8-6.3,2.9L273,110c1.9-2.7,4.3-3.5,8-3.5,6,0,8.8,2.7,8.8,7.4v15.5Zm0-10.8h-7.1c-3.9,0-5.8,1.5-5.8,4.6s1.8,4.4,5.9,4.4c2.1,0,4-.2,5.6-1.8.9-.8,1.3-2.3,1.3-4.3v-2.9Z" fill="#5b4fff"/><path d="M300.9,129.6c-3.7,0-5.5-2.3-5.5-5.9V96.1h2.4v27.6c0,2.6.8,3.8,3.5,3.8H303v2.1Z" fill="#5b4fff"/></svg>