<?xml version="1.0" encoding="UTF-8" standalone="no"?><svg xmlns="http://www.w3.org/2000/svg" width="422.14" height="136.63" viewBox="0 0 422.14 136.63"><path d="M108.84,68.44H84.07V7.21h23.82c11.35,0,18.49,6.45,18.49,16.77a13.85,13.85,0,0,1-8.26,13c4.73,1.89,9.2,6.45,9.2,14.19C127.32,62.42,119.67,68.44,108.84,68.44Zm-1.72-52.89H93.36V33.09h13.76c5.93,0,10-3.09,10-8.77S113.05,15.55,107.12,15.55ZM108,41.43H93.36V60.1H108c6.45,0,10.06-4,10.06-9.38S114.43,41.43,108,41.43Z" fill="#fff"/><path d="M159.53,68.44V64.05a15.59,15.59,0,0,1-11.61,5,15.14,15.14,0,0,1-10.75-4c-3.35-3.27-4.38-7.4-4.38-12.3V24.84h8.77V51.41c0,6.79,3.87,9.72,8.77,9.72s9-3,9-9.72V24.84h8.77v43.6Z" fill="#fff"/><path d="M199.37,35.07c-2-2-3.53-2.92-6.54-2.92-4.73,0-8.68,3.78-8.68,9.8V68.44h-8.77V24.84H184v4.73c2.23-3.1,6.7-5.25,11.61-5.25A13.5,13.5,0,0,1,206,28.45Z" fill="#fff"/><path d="M239.26,65.08c-2.41,2.41-6.11,3.87-10.58,3.87-4.64,0-8.26-1.11-11.44-5v22.1h-8.77V24.84h8.6v4.64c3.27-3.95,6.88-5.16,11.52-5.16,4.48,0,8.26,1.46,10.67,3.87,4.21,4.3,4.9,11.27,4.9,18.4S243.47,60.78,239.26,65.08Zm-12.9-32.93c-8,0-9.12,6.7-9.12,14.44s1.12,14.54,9.12,14.54,9-6.8,9-14.54S234.27,32.15,226.36,32.15Z" fill="#fff"/><path d="M276.75,69c-9.2,0-15.73-2.15-21.67-8.08l6.11-6.11c4.47,4.48,9.54,5.94,15.74,5.94,8.08,0,12.64-3.44,12.64-9.46,0-2.75-.69-4.9-2.41-6.37-1.55-1.37-3.61-2.15-6.71-2.58l-7.22-1c-5-.77-8.86-2.32-11.53-4.9-3-2.75-4.55-6.71-4.55-11.78,0-10.66,7.74-17.89,20.46-17.89,8.17,0,13.76,2.07,19,7l-5.85,5.85c-3.78-3.62-8.25-4.73-13.5-4.73-7.22,0-11.09,4-11.09,9.54A7.13,7.13,0,0,0,268.41,30c1.55,1.37,3.36,2.23,6.71,2.75l7.31,1.12c5.59.86,8.69,2.15,11.35,4.55,3.27,3,5,7.23,5,12.56C298.77,62.25,289.65,69,276.75,69Z" fill="#fff"/><path d="M330.1,68.44V64.05a15.59,15.59,0,0,1-11.61,5,15.14,15.14,0,0,1-10.75-4c-3.35-3.27-4.38-7.4-4.38-12.3V24.84h8.77V51.41c0,6.79,3.87,9.72,8.77,9.72s9-3,9-9.72V24.84h8.77v43.6Z" fill="#fff"/><path d="M345.71,16.24V7H355v9.29Zm.26,52.2V24.84h8.77v43.6Z" fill="#fff"/><path d="M375.35,68.44c-8.17,0-12-5.85-12-12.13V31.54h-5v-6.7h5V12.37h8.77V24.84h8.43v6.7h-8.43V55.88c0,3.18,1.55,5.08,4.82,5.08h3.61v7.48Z" fill="#fff"/><path d="M391,49.17c0,7.57,3.87,12.22,11.09,12.22,4.9,0,7.48-1.38,10.58-4.48l5.59,5.25C413.8,66.63,409.58,69,401.93,69c-10.92,0-19.61-5.76-19.61-22.36,0-14.18,7.31-22.27,18.49-22.27,11.7,0,18.49,8.43,18.49,21.16v3.69Zm18.4-12a9.53,9.53,0,0,0-17.28,0,13.44,13.44,0,0,0-1.12,5.9h19.6a14.8,14.8,0,0,0-1.19-5.94Z" fill="#fff"/><path d="M2.83,6.92V68.76H64.67V6.92ZM36.15,54.74v5.43h-4.8V53.05l6.47-8H31.35V35.39H19.64L31.35,20.94V15.51h4.8v7.12l-6.46,8h6.46v9.68H47.86Z" fill="#fff"/><path d="M96.52,115.43H86.77v14.22H84.23V96.13H96.52c5.79,0,10.12,3.53,10.12,9.65S102.31,115.43,96.52,115.43Zm-.29-17H86.77v14.78h9.46c4.66,0,7.87-2.35,7.87-7.39s-3.21-7.43-7.87-7.43Z" fill="#fff"/><path d="M119,108.79c-3.91,0-6.08,3.25-6.08,6.88v14h-2.4V107h2.4v3a7.8,7.8,0,0,1,6.64-3.3,6.93,6.93,0,0,1,5.46,2.17l-1.74,1.74A5.2,5.2,0,0,0,119,108.79Z" fill="#fff"/><path d="M141.2,127.44a9.22,9.22,0,0,1-12.62,0c-2.4-2.4-2.82-5.89-2.82-9.14s.42-6.73,2.82-9.13a9.22,9.22,0,0,1,12.62,0c2.41,2.4,2.83,5.89,2.83,9.13S143.61,125,141.2,127.44Zm-1.6-16.72a6.71,6.71,0,0,0-9.41,0c-1.89,1.89-2,5-2,7.58s.14,5.7,2,7.59a6.71,6.71,0,0,0,9.41,0c1.89-1.89,2-5,2-7.59S141.49,112.61,139.6,110.72Z" fill="#fff"/><path d="M151.31,108.75v20.9H148.9v-20.9h-3.1V107h3.1v-4.9c0-3.44,1.89-5.93,5.47-5.93h2.07v2.12h-1.65c-2.4,0-3.48,1.36-3.48,3.76v5h5.13v1.79Z" fill="#fff"/><path d="M160.08,118.82c0,5.8,2.54,9,7.39,9a7.91,7.91,0,0,0,6.27-2.73l1.79,1.41a10.29,10.29,0,0,1-8.2,3.49c-6.26,0-9.65-4-9.65-11.64,0-7.34,3.39-11.63,9.09-11.63s9.09,4.1,9.09,11.07v1.08Zm12.57-6.21a6.18,6.18,0,0,0-5.88-3.82,6.35,6.35,0,0,0-5.89,3.82,10.44,10.44,0,0,0-.8,4.28h13.37A10,10,0,0,0,172.65,112.61Z" fill="#fff"/><path d="M187.9,129.94c-4,0-6.88-1-9.18-3.25l1.64-1.65a9.84,9.84,0,0,0,7.44,2.78c4.48,0,6.83-1.56,6.83-4.62,0-2.4-1.32-3.53-4.33-3.81l-3.77-.33c-4.56-.38-6.82-2.36-6.82-5.93,0-4,3.2-6.46,8.14-6.46a13.29,13.29,0,0,1,8,2.41l-1.6,1.6a10.57,10.57,0,0,0-6.36-1.93c-3.77,0-5.79,1.55-5.79,4.38,0,2.4,1.41,3.48,4.61,3.81l3.68.33c3.76.38,6.64,1.51,6.64,5.93C197,127.35,193.5,129.94,187.9,129.94Z" fill="#fff"/><path d="M208.62,129.94c-4,0-6.88-1-9.19-3.25l1.65-1.65c1.74,1.84,4.24,2.78,7.44,2.78,4.47,0,6.83-1.56,6.83-4.62,0-2.4-1.32-3.53-4.33-3.81l-3.77-.33c-4.57-.38-6.83-2.36-6.83-5.93,0-4,3.2-6.46,8.15-6.46a13.29,13.29,0,0,1,8,2.41l-1.6,1.6a10.57,10.57,0,0,0-6.36-1.93c-3.77,0-5.79,1.55-5.79,4.38,0,2.4,1.41,3.48,4.61,3.81l3.67.33c3.77.38,6.64,1.51,6.64,5.93C217.7,127.35,214.22,129.94,208.62,129.94Z" fill="#fff"/><path d="M221.23,99.09v-3h3v3Zm.29,30.56V107h2.4v22.69Z" fill="#fff"/><path d="M243.83,127.44a9.22,9.22,0,0,1-12.62,0c-2.4-2.4-2.83-5.89-2.83-9.14s.43-6.73,2.83-9.13a9.22,9.22,0,0,1,12.62,0c2.4,2.4,2.82,5.89,2.82,9.13S246.23,125,243.83,127.44Zm-1.6-16.72a6.72,6.72,0,0,0-9.42,0c-1.88,1.89-2,5-2,7.58s.15,5.7,2,7.59a6.72,6.72,0,0,0,9.42,0c1.88-1.89,2-5,2-7.59S244.11,112.61,242.23,110.72Z" fill="#fff"/><path d="M266.3,129.65V115.57c0-4.38-2.17-6.78-6.26-6.78s-6.41,2.45-6.41,6.78v14.08h-2.4V107h2.4v2.68a8.38,8.38,0,0,1,15.07,5.51v14.5Z" fill="#fff"/><path d="M287.64,129.65v-2.26c-1.93,1.93-3.72,2.55-6.92,2.55-3.39,0-5.22-.57-6.68-2.08a6.27,6.27,0,0,1-1.65-4.42c0-4.15,3-6.55,7.91-6.55h7.34v-2.54c0-3.63-1.74-5.56-6.4-5.56-3.2,0-4.8.8-6.26,2.88l-1.75-1.51c1.94-2.69,4.29-3.49,8-3.49,6,0,8.81,2.69,8.81,7.44v15.54Zm0-10.83h-7.06c-3.86,0-5.79,1.51-5.79,4.57s1.79,4.43,5.93,4.43c2.07,0,4-.19,5.65-1.75.85-.8,1.27-2.26,1.27-4.33Z" fill="#fff"/><path d="M300.91,129.65c-3.72,0-5.47-2.3-5.47-5.88V96.13h2.41v27.59c0,2.59.8,3.81,3.48,3.81H303v2.12Z" fill="#fff"/></svg>