<?xml version="1.0" encoding="UTF-8" standalone="no"?><svg width="24" height="24" viewBox="0 0 24 24" fill="none" xmlns="http://www.w3.org/2000/svg">
<path fill-rule="evenodd" clip-rule="evenodd" d="M12 23C18.0751 23 23 18.0751 23 12C23 5.92487 18.0751 1 12 1C5.92487 1 1 5.92487 1 12C1 18.0751 5.92487 23 12 23ZM16.7628 9.91759C17.1817 9.43353 17.1289 8.70154 16.6448 8.28264C16.1608 7.86374 15.4288 7.91657 15.0099 8.40063L10.4529 13.6665L8.9554 12.2507C8.49024 11.8109 7.75663 11.8315 7.31684 12.2967C6.87706 12.7618 6.89762 13.4954 7.36278 13.9352L9.7404 16.1832C9.97021 16.4004 10.2788 16.5144 10.5947 16.4985C10.9105 16.4827 11.2062 16.3385 11.4132 16.0994L16.7628 9.91759Z" fill="#FF6633"/>
</svg>
