<?xml version="1.0" encoding="UTF-8" standalone="no"?><svg xmlns="http://www.w3.org/2000/svg" width="537" height="153.3" viewBox="0 0 537 153.3"><path d="M107.3,40.4h-14V64.6H84V3.4h23.2c11.9,0,19.6,7.9,19.6,18.6S119.2,40.4,107.3,40.4Zm-.5-28.7H93.3V32.2h13.4c6.5,0,10.8-3.8,10.8-10.2S113.3,11.7,106.8,11.7Z" fill="#000023"/><path d="M159.7,59.9a17.87,17.87,0,0,1-13.1,5.2,17.12,17.12,0,0,1-13-5.2c-4.1-4.3-5.2-9.8-5.2-17.2s1-12.8,5.2-17.1a19,19,0,0,1,26.1,0c4.1,4.3,5.2,9.8,5.2,17.1S163.8,55.6,159.7,59.9Zm-6.6-29.1a8.66,8.66,0,0,0-6.4-2.5,8.51,8.51,0,0,0-6.4,2.5c-2.7,2.7-3,7.2-3,12s.3,9.3,3,11.9a9.18,9.18,0,0,0,12.8,0c2.7-2.7,3-7.2,3-11.9S155.8,33.5,153.1,30.8Z" fill="#000023"/><path d="M194.4,31.2c-2-2-3.5-2.9-6.5-2.9-4.7,0-8.7,3.8-8.7,9.8V64.6h-8.8V21H179v4.7c2.2-3.1,6.7-5.2,11.6-5.2A13.5,13.5,0,0,1,201,24.6Z" fill="#000023"/><path d="M218.6,64.6c-8.2,0-12-5.8-12-12.1V27.7h-5V21h5V8.5h8.8V21h8.4v6.7h-8.4V52c0,3.2,1.5,5.1,4.8,5.1h3.6v7.5Z" fill="#000023"/><path d="M248.2,65.1c-9.2,0-15.7-2.1-21.7-8.1l6.1-6.1c4.5,4.5,9.5,5.9,15.7,5.9,8.1,0,12.6-3.4,12.6-9.5,0-2.7-.7-4.9-2.4-6.4-1.5-1.4-3.6-2.1-6.7-2.6l-7.2-1c-5-.8-8.9-2.3-11.5-4.9-3-2.7-4.6-6.7-4.6-11.8,0-10.7,7.7-17.9,20.5-17.9,8.2,0,13.8,2.1,19,7l-5.8,5.8c-3.8-3.6-8.3-4.7-13.5-4.7-7.2,0-11.1,3.9-11.1,9.5a7.6,7.6,0,0,0,2.2,5.7c1.5,1.4,3.3,2.2,6.7,2.7l7.3,1.1c5.6.9,8.7,2.1,11.4,4.6,3.3,3,5,7.2,5,12.5C270.2,58.4,261.1,65.1,248.2,65.1Z" fill="#000023"/><path d="M317.5,64.6H310L299.8,34.2,289.7,64.6h-7.6L268.6,21h9.3l8.4,30.7L296.4,21h6.8l10.1,30.7L321.7,21h9.4Z" fill="#000023"/><path d="M333.6,12.4V3.1h9.3v9.3Zm.3,52.2V21h8.8V64.6Z" fill="#000023"/><path d="M364.8,82.7c-6.6,0-10.8-1.5-15.4-5.8l5.6-5.6a12.46,12.46,0,0,0,9.5,3.9c7.4,0,10.2-5.2,10.2-11.1V58.5c-3.2,3.8-6.8,5-11.3,5A13.84,13.84,0,0,1,353,59.6c-4.2-4.2-4.9-10.3-4.9-17.7s.7-13.5,4.9-17.7c2.4-2.4,6.1-3.8,10.5-3.8,4.6,0,8.2,1.2,11.4,5.2V21h8.5V64.3C383.5,75,376.4,82.7,364.8,82.7Zm1-54.4c-7.9,0-8.9,6.8-8.9,13.7s1,13.7,8.9,13.7,8.9-6.8,8.9-13.7-1-13.7-8.9-13.7Z" fill="#000023"/><path d="M405.8,82.7c-6.6,0-10.8-1.5-15.4-5.8l5.6-5.6a12.46,12.46,0,0,0,9.5,3.9c7.4,0,10.2-5.2,10.2-11.1V58.5c-3.2,3.8-6.8,5-11.3,5A13.84,13.84,0,0,1,394,59.6c-4.2-4.2-4.9-10.3-4.9-17.7s.7-13.5,4.9-17.7c2.4-2.4,6.1-3.8,10.5-3.8,4.6,0,8.2,1.2,11.4,5.2V21h8.5V64.3C424.4,75,417.4,82.7,405.8,82.7Zm1-54.4c-7.9,0-8.9,6.8-8.9,13.7s1,13.7,8.9,13.7,8.9-6.8,8.9-13.7-1-13.7-8.9-13.7Z" fill="#000023"/><path d="M438.4,45.3c0,7.6,3.9,12.2,11.1,12.2,4.9,0,7.5-1.4,10.6-4.5l5.6,5.2c-4.5,4.5-8.7,6.8-16.3,6.8-10.9,0-19.6-5.8-19.6-22.4,0-14.2,7.3-22.3,18.5-22.3,11.7,0,18.5,8.4,18.5,21.2v3.7Zm18.4-12a9.54,9.54,0,0,0-12.7-4.6,9.36,9.36,0,0,0-4.6,4.6,13.46,13.46,0,0,0-1.1,5.9H458a15.18,15.18,0,0,0-1.2-5.9Z" fill="#000023"/><path d="M495.8,31.2c-2-2-3.5-2.9-6.5-2.9-4.7,0-8.7,3.8-8.7,9.8V64.6h-8.8V21h8.6v4.7c2.2-3.1,6.7-5.2,11.6-5.2a13.5,13.5,0,0,1,10.4,4.1Z" fill="#000023"/><path d="M260.6,149.9l-12.9-25.8H236.1v25.8h-9.3V88.7h23.7c11.6,0,19,7.5,19,17.9,0,8.8-5.3,14.4-12.2,16.3L271.4,150H260.6ZM249.9,97H236.1v19.2h13.8c6.2,0,10.4-3.5,10.4-9.5S256.1,97,249.9,97Z" fill="#000023"/><path d="M280.7,130.6c0,7.6,3.9,12.2,11.1,12.2,4.9,0,7.5-1.4,10.6-4.5l5.6,5.2c-4.5,4.5-8.7,6.8-16.3,6.8-10.9,0-19.6-5.8-19.6-22.4,0-14.2,7.3-22.3,18.5-22.3,11.7,0,18.5,8.4,18.5,21.2v3.7Zm18.4-12a9.54,9.54,0,0,0-12.7-4.6,9.36,9.36,0,0,0-4.6,4.6,13.46,13.46,0,0,0-1.1,5.9h19.6a15.18,15.18,0,0,0-1.2-5.9Z" fill="#000023"/><path d="M329.3,150.4c-7.1,0-13.2-1.2-18.3-6.3l5.8-5.8c3.5,3.6,8.2,4.6,12.6,4.6,5.4,0,9.5-1.9,9.5-6,0-3-1.6-4.7-5.8-5.2l-7-.6c-8.3-.8-12.9-4.4-12.9-12,0-8.6,7.3-13.3,16.4-13.3,6.6,0,12.1,1.4,16.2,4.9l-5.5,5.6c-2.7-2.3-6.6-3.2-10.7-3.2-5.3,0-7.9,2.2-7.9,5.6,0,3,1.7,4.6,6,5l6.1.5c9,.8,13.8,4.7,13.8,12.4C347.5,145.7,339.7,150.4,329.3,150.4Z" fill="#000023"/><path d="M359,130.6c0,7.6,3.9,12.2,11.1,12.2,4.9,0,7.5-1.4,10.6-4.5l5.6,5.2c-4.5,4.5-8.7,6.8-16.3,6.8-10.9,0-19.6-5.8-19.6-22.4,0-14.2,7.3-22.3,18.5-22.3,11.7,0,18.5,8.4,18.5,21.1v3.7H359Zm18.4-12a9.54,9.54,0,0,0-12.7-4.6,9.78,9.78,0,0,0-4.6,4.6,13.46,13.46,0,0,0-1.1,5.9h19.6a15.18,15.18,0,0,0-1.2-5.9Z" fill="#000023"/><path d="M416.5,149.9V146c-3.2,3.2-6.2,4.5-11.6,4.5s-9-1.3-11.7-4a13.48,13.48,0,0,1-3.4-9.4c0-7.3,5.1-12.5,15.1-12.5h11.4v-3.1c0-5.6-2.7-8.2-9.5-8.2-4.6,0-7.1,1.2-9.5,4.3l-5.7-5.4c4-4.8,8.3-6.4,15.6-6.4,12,0,18,5.2,18,15v29.1Zm-.1-19.3H406.3c-5.3,0-8,2.2-8,6.3s2.5,6.2,8.3,6.2c3.1,0,5.6-.3,7.9-2.5,1.4-1.3,1.9-3.4,1.9-6.4Z" fill="#000023"/><path d="M456.1,116.5c-2-2-3.5-2.9-6.5-2.9-4.7,0-8.7,3.8-8.7,9.8v26.5h-8.8V106.3h8.6V111c2.2-3.1,6.7-5.2,11.6-5.2a13.5,13.5,0,0,1,10.4,4.1Z" fill="#000023"/><path d="M480.7,150.4c-9.8,0-19.4-6-19.4-22.4s9.6-22.3,19.4-22.3c6,0,10.2,1.7,14.4,6.1l-6,5.8c-2.7-3-4.9-4.1-8.3-4.1a9.81,9.81,0,0,0-8.1,3.9c-1.9,2.4-2.6,5.5-2.6,10.6s.7,8.3,2.6,10.7a9.81,9.81,0,0,0,8.1,3.9c3.4,0,5.6-1.1,8.3-4.1l6,5.8A18.17,18.17,0,0,1,480.7,150.4Z" fill="#000023"/><path d="M525.4,149.9V123.3c0-6.8-3.9-9.7-8.8-9.7s-9,3-9,9.7v26.6h-8.8V88.7h8.8v22a16,16,0,0,1,22.1-.9c3.3,3.3,4.4,7.4,4.4,12.3V150Z" fill="#000023"/><rect x="2.8" y="3.1" width="61.8" height="61.8" fill="#f63"/><polygon points="37.1 64.9 30.4 64.9 30.4 55 39.4 44 30.4 44 30.4 30.6 14.2 30.6 30.4 10.6 30.4 3.1 37.1 3.1 37.1 12.9 28.1 24 37.1 24 37.1 37.4 53.3 37.4 37.1 57.4 37.1 64.9" fill="#fff"/></svg>