<?xml version="1.0" encoding="UTF-8" standalone="no"?><svg width="255" height="170" viewBox="0 0 255 170" fill="none" xmlns="http://www.w3.org/2000/svg">
<path d="M12.896 120.146L11.3237 116.15C10.1445 113.661 9.29287 111.04 8.76879 108.289C8.57225 107.568 7.98266 105.538 7.72062 104.162C7.52408 101.869 7.26204 99.5106 7 97.2177V96.9557C7 96.2351 7.39306 91.6493 7.5896 90.9942C7.5896 90.9287 7.65511 90.7977 7.65511 90.6667C7.98266 89.9461 8.2447 89.1599 8.57225 88.4393C8.89981 87.7187 9.22736 86.8015 9.55491 86.0154C9.68593 85.7534 9.88247 85.5568 10.079 85.3603C10.7341 84.6397 12.4374 83.1985 13.2235 82.5434C13.3545 82.4123 13.4855 82.3468 13.6166 82.2158C13.8131 82.0848 14.0751 81.8883 14.2717 81.7572C14.9268 81.3642 15.7129 80.9711 16.368 80.578C17.8748 79.7919 19.447 79.0058 20.9538 78.2852C24.0983 76.7784 27.2428 75.2717 30.4528 73.8304C32.8112 72.7823 35.2351 71.7341 37.659 70.7514C37.3969 70.4239 37.1349 70.0963 36.9383 69.7688L33.2042 64.3969C31.2389 61.3834 29.6667 58.1079 28.4875 54.7014C27.5048 52.605 26.7842 50.4432 26.3256 48.2158C25.4085 45.3333 24.8844 42.3854 24.7534 39.3064C24.8189 37.7341 24.9499 36.0963 25.0154 34.5241C25.2119 32.1657 26.5222 30.0039 28.553 28.7592C29.7322 28.1696 30.9769 27.5145 32.1561 26.8594C32.4181 26.6628 32.6801 26.4663 32.9422 26.2698L33.5318 26.2042C38.6416 25.0251 43.6859 23.5183 48.7302 21.9461C53.9056 20.3738 59.0809 18.6705 64.2563 17.0328C66.8767 16.3121 69.4971 15.7226 72.183 15.264C75 14.7399 77.8169 14.2158 80.6339 13.7572C87.3815 12.6436 94.0636 11.6609 100.811 10.7437C111.948 9.237 123.019 8.12332 134.156 7.07515C145.293 6.02698 156.299 5.10983 167.37 4.2582C173.331 3.79962 179.358 3.53758 185.189 4.2582C188.006 4.65126 190.757 5.17535 193.443 5.96147C197.767 7.14066 202.222 8.31985 206.414 9.89211L211.655 13.2987L216.896 18.474L221.875 25.1561C224.364 28.9557 226.395 33.0829 227.902 37.341C229.146 39.9615 229.998 42.7784 230.522 45.6609C231.374 48.1503 231.767 50.7707 231.832 53.3911C232.225 55.6185 232.225 57.9114 231.767 60.0732C232.029 60.4663 232.291 60.7938 232.487 61.1869C235.239 64.659 237.532 68.4586 239.301 72.5202L242.642 81.0366C244.279 86.0154 245.196 91.2563 245.262 96.4971C245.065 98.5935 244.803 100.69 244.607 102.721C244.148 105.996 242.183 108.879 239.301 110.451L236.746 110.844C224.037 113.137 211.983 118.705 199.929 123.487C187.94 128.27 175.69 132.397 163.243 135.803C149.617 139.538 135.794 142.092 121.906 144.123C109.393 145.958 96.7495 147.202 84.106 147.792C77.7514 148.054 71.4624 148.185 65.1734 148.119C59.0809 148.119 52.9884 147.792 46.8959 147.006C43.8825 146.613 40.9345 145.958 37.9865 145.106C36.2832 144.582 34.4489 144.123 32.8767 143.403C32.6802 143.337 32.4836 143.206 32.3526 143.141C30.6493 142.092 29.0116 140.979 27.3738 139.734L27.0462 139.472C26.0636 138.555 23.0501 135.41 22.1329 134.362L22.0674 134.231C20.4952 132.069 18.9229 129.908 17.3507 127.746L13.2235 120.146H12.896Z" fill="#F2FAFF"/>
<path d="M247.62 81.102L219.713 80.1194C219.32 80.1194 218.992 79.7918 218.992 79.3988L218.796 41.7302C218.796 41.4681 218.992 41.3371 219.189 41.2716H219.254L247.162 41.3371C247.555 41.3371 247.882 41.6647 247.948 42.0577L248.144 80.6435C248.079 80.9055 247.948 81.102 247.62 81.102Z" fill="#7FC9FF"/>
<path d="M167.501 16.1156L140.707 17.4913C140.248 17.4913 139.921 17.1638 139.855 16.7052L139.724 2.4894C139.724 2.22736 139.921 2.03083 140.117 2.03083L167.108 0C167.566 0 167.959 0.327553 167.959 0.786127L168.025 15.7225C167.959 15.9846 167.763 16.1156 167.501 16.1156Z" fill="#7FC9FF"/>
<path d="M87.5124 41.6648H59.867C59.2119 41.5338 58.7533 41.0097 58.7533 40.3546L58.6878 13.0367C58.6223 12.7091 58.8843 12.3816 59.2774 12.3161L86.9228 10.0232C87.5779 10.0887 88.102 10.6783 88.102 11.3334L88.233 40.9442C88.233 41.2717 87.971 41.5993 87.5124 41.6648C87.5779 41.6648 87.5779 41.6648 87.5124 41.6648Z" fill="#7FC9FF"/>
<path opacity="0.75" d="M81.0924 31.4451L79.2581 29.2832C79.1926 29.1522 79.0616 29.1522 78.9305 29.1522C78.7995 29.1522 78.6685 29.2177 78.603 29.3488L77.6203 30.659L77.5548 28.9557L78.9305 27.1214L80.3718 28.8247C80.5028 29.0212 80.8303 29.0212 81.0269 28.8902C81.2234 28.7592 81.2234 28.4316 81.0924 28.2351L79.2581 26.1387C79.1271 25.9422 78.7995 25.9422 78.603 26.0732L78.5375 26.1387L77.4893 27.58L77.4238 25.7457L78.7995 23.9769L80.2407 25.7457C80.4373 25.8767 80.6993 25.8767 80.8958 25.6802C81.0269 25.5491 81.0269 25.3526 80.8958 25.1561L79.0615 23.0597C78.996 22.9287 78.865 22.9287 78.734 22.9287C78.603 22.9287 78.472 22.9942 78.4064 23.1253L77.2928 24.632C77.0962 23.7804 76.5722 22.9942 75.8515 22.5357L75.786 21.422C75.786 20.5703 75.2619 19.7187 74.5413 19.3256L75.7205 17.9499C75.917 17.7534 75.8515 17.4913 75.7205 17.3603C75.7205 17.3603 75.7205 17.3603 75.655 17.2948C75.4585 17.0983 75.1964 17.1638 74.9999 17.3603L73.5587 19.1291H72.576L71.0693 17.2948C70.8727 17.1638 70.6107 17.1638 70.4142 17.3603C70.2831 17.4913 70.2831 17.6879 70.4142 17.8189L71.6589 19.2601C71.4623 19.3256 71.3313 19.4567 71.1348 19.5877C70.6762 20.0463 70.4797 20.7014 70.4797 21.3565V22.2736C70.3486 22.4046 70.1521 22.5357 70.0211 22.6667C69.5625 23.1908 69.235 23.7804 69.1039 24.4355L67.7937 22.8632C67.7282 22.7322 67.5972 22.6667 67.4662 22.7322C67.3352 22.7322 67.2041 22.7977 67.1386 22.8632L65.1733 25.0906C64.9768 25.2216 64.9113 25.4836 65.0423 25.6802C65.1733 25.8767 65.4353 25.9422 65.6319 25.8112C65.6974 25.7457 65.7629 25.6802 65.7629 25.6147L67.2041 23.8459L68.7764 25.6802V27.58L67.5317 26.0732C67.4662 25.9422 67.3352 25.9422 67.2041 25.9422C67.0731 25.9422 66.9421 26.0077 66.8766 26.0732L65.1733 28.4316C65.0423 28.6281 65.0423 28.8902 65.2388 29.0867C65.4353 29.2177 65.6974 29.2177 65.8939 29.0212C65.8939 29.0212 65.8939 29.0212 65.8939 28.9557L67.4007 27.1214L68.9729 29.0212V30.8555L67.7937 29.4798C67.5972 29.2832 67.3352 29.2832 67.1386 29.4798L65.3043 31.8382C65.1733 32.0347 65.1733 32.2967 65.3698 32.4933C65.5664 32.6243 65.8284 32.6243 66.0249 32.4278L67.5317 30.5279L69.3005 32.6243C69.5625 33.5414 70.0866 34.3931 70.7417 35.0482C71.2658 35.5723 71.9209 35.8343 72.6415 35.8998H72.707L74.3448 35.8343C75.0654 35.7688 75.786 35.4412 76.2446 34.8517C76.8997 34.131 77.2928 33.2794 77.4893 32.3622L78.996 30.2659L80.4373 31.9692C80.5683 32.1657 80.8958 32.1657 81.0924 32.0347C81.2234 31.8382 81.2234 31.5761 81.0924 31.4451ZM71.2003 21.1599C71.2003 20.7669 71.3313 20.3738 71.5933 20.0463C71.7899 19.8497 71.9864 19.7842 72.2485 19.7842H73.6897C74.4103 19.9152 74.8689 20.5048 74.8689 21.2254V21.9461C74.7379 21.9461 74.6068 21.8806 74.4758 21.8806H71.7244C71.5933 21.8806 71.3968 21.8806 71.2658 21.9461L71.2003 21.1599ZM70.5452 23.2563C70.8727 22.9287 71.2658 22.7322 71.7244 22.7322H74.4758C75.4585 22.8632 76.2446 23.5838 76.3756 24.5665H73.1656L69.8901 24.632C69.9556 24.1079 70.1521 23.6493 70.5452 23.2563ZM72.6415 34.9827C72.1174 34.9827 71.6589 34.7861 71.2658 34.3931C70.3486 33.4759 69.8901 32.2312 69.8246 30.921V29.0867C69.8901 28.9557 69.8901 28.8902 69.8246 28.7592L69.6935 25.7457C69.6935 25.6802 69.6935 25.6147 69.6935 25.5491H72.576L72.838 34.9827H72.6415ZM75.524 34.2621C75.1964 34.6551 74.7379 34.8516 74.2793 34.9172H73.8862L73.6242 25.4836H76.5066V25.6147L76.6377 28.7592V28.8902L76.7032 30.7245C76.7687 31.9692 76.3101 33.2794 75.524 34.2621Z" fill="white"/>
<path d="M182.372 149.626L152.237 145.04C151.778 144.975 151.451 144.582 151.385 144.123L151.844 116.15C151.844 115.823 152.106 115.626 152.368 115.626H152.499L182.044 118.05C182.503 118.115 182.896 118.509 182.961 118.967L183.092 149.168C183.092 149.495 182.83 149.692 182.568 149.692C182.503 149.626 182.437 149.626 182.372 149.626Z" fill="#7FC9FF"/>
<path opacity="0.75" d="M162.915 130.366C162.719 130.432 162.588 130.3 162.522 130.169C162.457 130.038 162.522 129.842 162.653 129.776C162.85 129.711 163.112 129.711 163.308 129.711C163.505 129.711 163.767 129.776 163.963 129.907C164.356 130.104 164.684 130.432 164.88 130.89C165.077 131.283 165.077 131.742 164.88 132.135C164.749 132.462 164.618 132.855 164.553 133.183C164.487 133.576 164.422 133.904 164.422 134.297C164.422 134.428 164.291 134.559 164.094 134.559C163.898 134.559 163.767 134.362 163.767 134.231C163.767 133.838 163.832 133.379 163.898 132.986C163.963 132.593 164.094 132.2 164.291 131.807C164.422 131.545 164.422 131.283 164.291 131.021C164.16 130.759 163.963 130.563 163.701 130.432C163.57 130.366 163.439 130.366 163.308 130.3C163.177 130.3 163.046 130.301 162.915 130.366ZM163.767 135.345C163.767 135.214 163.832 135.017 164.029 135.017C164.225 135.017 164.356 135.148 164.422 135.345C164.422 135.476 164.422 135.672 164.487 135.803C164.553 135.934 164.553 136.131 164.618 136.262C164.684 136.393 164.553 136.59 164.422 136.655C164.225 136.655 164.094 136.59 164.029 136.393C163.963 136.262 163.963 136.065 163.898 135.869C163.832 135.672 163.832 135.541 163.767 135.345ZM172.218 134.1C172.283 133.969 172.414 133.838 172.611 133.904C172.807 133.969 172.873 134.1 172.873 134.297C172.807 134.559 172.742 134.755 172.676 135.017C172.611 135.279 172.545 135.476 172.414 135.672C172.218 136.065 171.89 136.393 171.497 136.458C171.038 136.59 170.58 136.59 170.187 136.393C169.794 136.196 169.466 135.869 169.27 135.41C169.073 135.017 169.073 134.559 169.27 134.166C169.466 133.707 169.597 133.183 169.663 132.659C169.728 132.135 169.728 131.611 169.663 131.087C169.663 130.89 169.794 130.759 169.925 130.759C170.121 130.759 170.252 130.89 170.252 131.087C170.318 131.676 170.318 132.266 170.252 132.855C170.187 133.445 169.99 133.969 169.794 134.493C169.663 134.755 169.663 135.017 169.794 135.279C169.925 135.541 170.121 135.738 170.383 135.869C170.645 136 170.907 136 171.169 135.934C171.432 135.869 171.628 135.672 171.759 135.41C171.825 135.214 171.956 135.017 172.021 134.755C172.087 134.493 172.087 134.297 172.218 134.1ZM170.056 129.776C170.121 129.907 169.99 130.104 169.859 130.169C169.663 130.169 169.532 130.104 169.466 129.907C169.204 128.99 168.68 128.139 168.091 127.418C167.435 126.697 166.649 126.108 165.798 125.649C165.667 125.584 165.536 125.387 165.601 125.191C165.667 125.06 165.863 124.994 165.994 125.06C166.977 125.518 167.828 126.173 168.484 126.959C169.204 127.811 169.728 128.728 170.056 129.776ZM164.422 124.536C164.618 124.601 164.749 124.732 164.684 124.929C164.684 125.06 164.487 125.191 164.356 125.191C163.963 125.125 163.57 125.06 163.112 124.994C162.719 124.994 162.26 124.994 161.867 125.06C161.67 125.06 161.539 124.929 161.474 124.798C161.408 124.667 161.539 124.47 161.67 124.47H161.736C162.195 124.405 162.653 124.405 163.112 124.405C163.505 124.339 163.963 124.405 164.422 124.536ZM160.295 124.732C160.491 124.667 160.622 124.732 160.753 124.929C160.819 125.06 160.753 125.256 160.622 125.322C160.033 125.518 159.509 125.846 159.05 126.173C158.919 126.304 158.722 126.239 158.591 126.108C158.46 125.977 158.46 125.78 158.591 125.649C158.854 125.453 159.116 125.256 159.378 125.125C159.705 124.994 160.033 124.863 160.295 124.732ZM173.724 139.275C173.855 139.21 174.052 139.21 174.183 139.406C174.314 139.537 174.248 139.734 174.117 139.8C173.331 140.258 172.48 140.52 171.628 140.52C170.711 140.586 169.794 140.389 168.942 140.062C168.811 139.996 168.68 139.8 168.746 139.669C168.811 139.537 169.008 139.406 169.139 139.472C169.859 139.8 170.711 139.931 171.497 139.865C172.283 139.865 173.004 139.669 173.724 139.275ZM158.788 130.628C158.854 130.497 158.985 130.366 159.181 130.432C159.378 130.497 159.443 130.694 159.378 130.825C159.05 132.004 158.854 133.314 158.919 134.559C158.985 135.869 159.247 137.114 159.705 138.293C159.771 138.424 159.705 138.62 159.574 138.686C159.574 138.686 159.574 138.686 159.509 138.686C159.312 138.751 159.181 138.62 159.116 138.489C158.591 137.245 158.329 135.869 158.264 134.493C158.264 133.248 158.395 131.873 158.788 130.628ZM159.771 139.734C159.705 139.603 159.771 139.406 159.902 139.341C160.098 139.275 160.229 139.341 160.36 139.472C160.426 139.669 160.557 139.8 160.622 139.931L160.884 140.389C160.95 140.52 160.95 140.717 160.819 140.782C160.688 140.848 160.491 140.782 160.36 140.651C160.295 140.52 160.164 140.324 160.098 140.193C160.033 140.062 159.836 139.865 159.771 139.734ZM161.277 142.092C161.146 141.961 161.146 141.765 161.277 141.634C161.408 141.568 161.605 141.568 161.736 141.699L161.998 141.961L162.26 142.223C162.457 142.485 162.719 142.682 162.915 142.944C163.177 143.141 163.374 143.403 163.636 143.599C163.767 143.73 163.767 143.927 163.701 144.058C163.57 144.189 163.374 144.189 163.243 144.058C162.981 143.861 162.719 143.599 162.522 143.403C162.326 143.206 162.064 142.944 161.801 142.682L161.539 142.42L161.277 142.092ZM164.356 119.819C164.16 119.819 164.029 119.622 164.094 119.426C164.094 119.295 164.225 119.164 164.422 119.164L164.618 119.229L164.815 119.295C165.012 119.36 165.143 119.491 165.077 119.688C165.077 119.819 164.88 119.95 164.749 119.95L164.553 119.884L164.356 119.819ZM166.06 120.212C165.863 120.146 165.798 120.015 165.798 119.819C165.863 119.688 165.994 119.557 166.125 119.622C166.387 119.688 166.649 119.819 166.977 119.884C167.304 119.95 167.566 120.081 167.763 120.212C167.894 120.277 168.025 120.474 167.959 120.605C167.894 120.736 167.697 120.801 167.566 120.736C167.304 120.605 167.042 120.474 166.78 120.408C166.518 120.343 166.322 120.277 166.06 120.212ZM168.811 121.457C168.68 121.391 168.615 121.195 168.68 120.998C168.746 120.867 168.942 120.801 169.073 120.867C169.335 120.998 169.532 121.129 169.728 121.26C169.925 121.391 170.187 121.588 170.383 121.719C170.514 121.85 170.58 122.046 170.449 122.177C170.318 122.308 170.121 122.308 169.99 122.243C169.794 122.112 169.597 121.915 169.335 121.784C169.073 121.653 169.008 121.588 168.811 121.457ZM171.235 123.225C171.104 123.094 171.104 122.898 171.235 122.767C171.366 122.636 171.563 122.636 171.694 122.767C171.956 123.029 172.218 123.291 172.48 123.618C172.742 123.946 173.004 124.208 173.2 124.536C173.331 124.667 173.266 124.863 173.135 124.994C173.004 125.06 172.807 125.06 172.676 124.929C172.48 124.667 172.218 124.339 172.021 124.077C171.825 123.815 171.497 123.487 171.235 123.225ZM173.462 126.173C173.397 126.042 173.397 125.846 173.528 125.78C173.659 125.715 173.855 125.78 173.986 125.911C174.117 126.108 174.249 126.37 174.314 126.566C174.38 126.763 174.511 127.025 174.642 127.222C174.707 127.353 174.642 127.549 174.511 127.615C174.314 127.68 174.183 127.549 174.117 127.418C174.052 127.222 173.921 126.959 173.79 126.763C173.659 126.566 173.593 126.304 173.462 126.173ZM160.36 134.755C160.36 134.886 160.229 135.083 160.098 135.083C159.902 135.083 159.771 134.952 159.771 134.755C159.705 133.904 159.771 133.117 159.902 132.266C160.033 131.48 160.295 130.694 160.622 129.907C160.688 129.776 160.753 129.58 160.884 129.449C160.95 129.318 161.081 129.187 161.212 129.056C161.343 128.925 161.539 128.925 161.67 129.056C161.801 129.187 161.801 129.383 161.67 129.514C161.605 129.58 161.474 129.711 161.408 129.842C161.343 129.973 161.277 130.038 161.212 130.169C160.884 130.89 160.688 131.611 160.557 132.397C160.295 133.183 160.229 133.969 160.36 134.755ZM159.902 136.262C159.836 136.131 159.967 135.934 160.098 135.934H160.164C160.36 135.934 160.491 136.065 160.557 136.196V136.327V136.458C160.557 136.524 160.622 136.655 160.622 136.721C160.622 136.786 160.688 136.852 160.688 136.983C160.753 137.114 160.622 137.31 160.491 137.376C160.491 137.376 160.491 137.376 160.426 137.376C160.229 137.376 160.098 137.31 160.033 137.114C160.033 137.048 159.967 136.983 159.967 136.852L159.902 136.59V136.262ZM160.491 138.162C160.426 138.031 160.491 137.834 160.622 137.769C160.819 137.703 160.95 137.834 161.015 137.965C161.081 138.096 161.081 138.227 161.146 138.293C161.212 138.358 161.212 138.555 161.277 138.62C161.343 138.751 161.277 138.948 161.146 139.013C160.95 139.079 160.753 139.013 160.688 138.817L160.491 138.424V138.162ZM161.539 140.193C161.474 140.062 161.474 139.865 161.605 139.8C161.736 139.734 161.933 139.8 162.064 139.931C162.522 140.651 163.046 141.306 163.636 141.896C164.225 142.485 164.88 143.01 165.601 143.468C165.732 143.534 165.798 143.73 165.732 143.927C165.667 144.058 165.47 144.123 165.274 143.992C163.767 143.01 162.457 141.699 161.539 140.193ZM166.584 144.647C166.387 144.582 166.322 144.385 166.387 144.254C166.453 144.123 166.649 144.058 166.78 144.123L167.239 144.32L167.697 144.516C167.894 144.582 167.959 144.778 167.894 144.909C167.828 145.04 167.632 145.171 167.501 145.106L166.977 144.909L166.584 144.647ZM162.653 120.998C162.457 120.998 162.326 120.867 162.326 120.67C162.326 120.539 162.457 120.343 162.588 120.343H162.653C163.112 120.343 163.505 120.408 163.963 120.408C164.422 120.474 164.815 120.539 165.274 120.67C165.47 120.736 165.536 120.867 165.536 121.064C165.536 121.195 165.339 121.326 165.208 121.326C164.815 121.26 164.422 121.129 163.963 121.064C163.505 120.998 163.112 120.998 162.653 120.998ZM167.37 122.112C167.239 122.046 167.108 121.85 167.173 121.719C167.239 121.588 167.435 121.522 167.566 121.588C168.156 121.85 168.746 122.177 169.27 122.57C169.794 122.963 170.318 123.422 170.776 123.88C170.907 124.011 170.907 124.208 170.776 124.339C170.645 124.47 170.449 124.47 170.318 124.339C169.859 123.88 169.401 123.487 168.877 123.16C168.353 122.767 167.828 122.439 167.37 122.112ZM171.301 125.191C171.169 125.06 171.169 124.863 171.301 124.732C171.432 124.601 171.628 124.667 171.759 124.798C172.414 125.584 173.004 126.501 173.397 127.418C173.855 128.335 174.117 129.318 174.314 130.3C174.314 130.432 174.249 130.628 174.052 130.628C173.855 130.628 173.724 130.497 173.659 130.366C173.528 129.449 173.2 128.466 172.807 127.615C172.414 126.763 171.89 125.911 171.301 125.191ZM173.855 131.807C173.855 131.676 173.986 131.545 174.117 131.48H174.183C174.38 131.48 174.511 131.611 174.511 131.807V132.135C174.511 132.659 174.511 133.117 174.445 133.642C174.38 134.1 174.248 134.624 174.117 135.083C174.052 135.214 173.921 135.345 173.724 135.279C173.528 135.214 173.462 135.017 173.528 134.886C173.659 134.428 173.724 133.969 173.79 133.511C173.855 133.052 173.921 132.593 173.855 132.135C173.855 132.069 173.855 132.004 173.855 132.004V131.807ZM173.069 135.934C173.135 135.803 173.331 135.738 173.528 135.803C173.659 135.869 173.724 136.065 173.659 136.196C173.331 136.917 172.742 137.441 172.021 137.703C171.235 137.965 170.449 137.9 169.728 137.507C169.008 137.179 168.418 136.524 168.091 135.803C167.763 135.083 167.763 134.231 168.091 133.511C168.156 133.38 168.353 133.314 168.484 133.38C168.615 133.445 168.68 133.642 168.615 133.773C168.353 134.362 168.353 135.017 168.615 135.541C168.877 136.131 169.335 136.655 169.925 136.917C170.514 137.179 171.17 137.245 171.759 137.048C172.349 136.983 172.807 136.59 173.069 135.934ZM161.605 130.89C161.67 130.759 161.867 130.628 161.998 130.759C162.129 130.825 162.26 131.021 162.195 131.152C161.67 132.462 161.539 133.838 161.736 135.214C161.933 136.655 162.391 138.031 163.177 139.21C163.243 139.341 163.243 139.537 163.112 139.603C162.981 139.669 162.784 139.603 162.653 139.472C161.801 138.162 161.277 136.721 161.081 135.148C160.95 133.773 161.081 132.266 161.605 130.89ZM163.57 140.717C163.439 140.586 163.439 140.389 163.57 140.258C163.701 140.127 163.898 140.193 164.029 140.324C164.094 140.455 164.225 140.52 164.291 140.651L164.553 140.979C164.684 141.11 164.684 141.306 164.553 141.437C164.422 141.568 164.225 141.568 164.094 141.437C163.963 141.372 163.898 141.241 163.767 141.11L163.57 140.717ZM165.143 142.289C165.012 142.223 164.946 142.027 165.011 141.896C165.077 141.765 165.274 141.699 165.405 141.765C165.405 141.765 165.47 141.765 165.47 141.83C165.732 142.027 166.06 142.223 166.322 142.42C166.649 142.616 166.911 142.748 167.239 142.944C167.566 143.141 167.959 143.272 168.287 143.403C168.615 143.534 169.008 143.665 169.401 143.73C169.597 143.796 169.728 143.927 169.663 144.123C169.663 144.32 169.466 144.385 169.335 144.385C168.942 144.32 168.549 144.189 168.156 144.058C167.763 143.927 167.37 143.73 166.977 143.599C166.649 143.468 166.322 143.272 165.994 143.075C165.798 142.748 165.47 142.485 165.143 142.289ZM159.836 122.701C159.64 122.767 159.509 122.636 159.443 122.505C159.378 122.374 159.443 122.177 159.574 122.112H159.64L159.771 122.046L159.967 121.981C160.164 121.915 160.295 122.046 160.36 122.177C160.426 122.308 160.36 122.505 160.164 122.57L160.033 122.636L159.836 122.701ZM161.277 122.374C161.081 122.374 160.95 122.308 160.884 122.112C160.819 121.981 160.95 121.784 161.081 121.784H161.146C161.474 121.719 161.867 121.719 162.195 121.719H163.243C163.439 121.719 163.57 121.85 163.57 122.046C163.57 122.177 163.439 122.374 163.308 122.374C162.981 122.374 162.653 122.374 162.326 122.374C161.933 122.308 161.605 122.308 161.277 122.374ZM164.618 122.505C164.422 122.439 164.291 122.308 164.356 122.112C164.356 121.981 164.487 121.85 164.684 121.85H164.749C165.143 121.915 165.536 122.046 165.929 122.177C166.322 122.308 166.715 122.505 167.108 122.636C167.239 122.701 167.37 122.898 167.304 123.029C167.239 123.16 167.042 123.225 166.911 123.16C166.584 122.963 166.191 122.832 165.863 122.701C165.339 122.701 165.012 122.57 164.618 122.505ZM168.746 124.47C168.615 124.339 168.549 124.208 168.68 124.011C168.811 123.815 168.942 123.815 169.139 123.946C170.514 124.994 171.563 126.435 172.283 128.008C172.938 129.514 173.266 131.218 173.069 132.921C173.069 133.052 172.873 133.183 172.742 133.183C172.545 133.183 172.414 132.986 172.48 132.79C172.611 131.218 172.349 129.645 171.694 128.204C171.038 126.763 169.99 125.453 168.746 124.47ZM163.046 131.087C163.112 130.956 163.308 130.89 163.439 131.021C163.57 131.087 163.701 131.283 163.636 131.48C163.374 132.135 163.177 132.79 163.112 133.445C163.046 134.166 163.046 134.821 163.177 135.541C163.177 135.672 163.112 135.869 162.915 135.869C162.915 135.869 162.915 135.869 162.85 135.869C162.653 135.869 162.522 135.738 162.457 135.607C162.326 134.886 162.326 134.1 162.391 133.38C162.522 132.528 162.719 131.807 163.046 131.087ZM162.784 136.786C162.719 136.655 162.784 136.458 162.981 136.393C163.177 136.327 163.308 136.458 163.374 136.655C163.636 137.507 164.094 138.358 164.618 139.079C165.143 139.8 165.863 140.455 166.584 140.979C166.715 141.044 166.78 141.241 166.715 141.437C166.584 141.568 166.387 141.634 166.256 141.503C165.47 140.913 164.749 140.193 164.16 139.406C163.57 138.62 163.112 137.703 162.784 136.786ZM167.632 142.289C167.435 142.223 167.37 142.027 167.435 141.83C167.501 141.699 167.697 141.634 167.828 141.699C168.484 142.027 169.204 142.289 169.99 142.42C170.711 142.551 171.432 142.616 172.218 142.485C172.414 142.485 172.545 142.616 172.611 142.748C172.611 142.879 172.545 143.075 172.349 143.075C171.563 143.141 170.776 143.141 169.99 142.944C169.139 142.879 168.353 142.616 167.632 142.289ZM158.985 124.601C158.854 124.667 158.657 124.601 158.526 124.47C158.46 124.339 158.46 124.143 158.591 124.077C159.05 123.815 159.509 123.618 159.967 123.422C160.426 123.225 160.95 123.16 161.474 123.029C161.67 123.029 161.801 123.094 161.867 123.291C161.933 123.422 161.801 123.618 161.67 123.618C161.212 123.684 160.753 123.815 160.295 123.946C159.771 124.143 159.378 124.339 158.985 124.601ZM163.046 123.618C162.85 123.618 162.719 123.487 162.719 123.291C162.719 123.16 162.85 122.963 162.981 122.963H163.112H163.243C163.439 122.963 163.57 123.094 163.57 123.291C163.57 123.422 163.439 123.618 163.308 123.618C163.308 123.618 163.308 123.618 163.243 123.618H163.112H163.046ZM164.553 123.815C164.356 123.749 164.291 123.618 164.291 123.422C164.291 123.291 164.487 123.16 164.618 123.16C164.946 123.225 165.274 123.356 165.601 123.422C165.929 123.553 166.256 123.684 166.518 123.815L166.78 123.946L167.042 124.077C167.173 124.143 167.239 124.339 167.173 124.536C167.108 124.667 166.911 124.732 166.78 124.667L166.518 124.536L166.256 124.405C165.994 124.274 165.667 124.143 165.405 124.011C165.143 123.946 164.815 123.88 164.553 123.815ZM168.091 125.584C167.959 125.453 167.894 125.322 168.025 125.125C168.156 124.929 168.287 124.929 168.484 125.06H168.549C168.811 125.256 169.008 125.453 169.204 125.649C169.401 125.846 169.597 126.042 169.794 126.304C169.925 126.435 169.925 126.632 169.794 126.763C169.663 126.894 169.466 126.828 169.335 126.697C169.139 126.501 169.008 126.304 168.811 126.108C168.549 125.977 168.353 125.78 168.091 125.584ZM169.99 127.877C169.925 127.746 169.925 127.549 170.056 127.484C170.187 127.418 170.383 127.484 170.514 127.615C171.169 128.728 171.563 130.038 171.694 131.349C171.825 132.593 171.563 133.904 171.104 135.017C171.038 135.148 170.842 135.214 170.711 135.148C170.58 135.083 170.449 134.886 170.514 134.755C170.973 133.707 171.17 132.528 171.104 131.349C170.973 130.104 170.645 128.925 169.99 127.877ZM164.487 137.572C164.422 137.441 164.487 137.245 164.618 137.179C164.815 137.114 164.946 137.179 165.077 137.376C165.798 138.751 166.911 139.931 168.353 140.586C168.549 140.717 168.811 140.782 169.008 140.848C169.204 140.913 169.466 140.979 169.663 141.044C169.859 141.11 169.925 141.241 169.925 141.437C169.925 141.568 169.728 141.699 169.597 141.699C169.335 141.634 169.073 141.568 168.877 141.437C167.828 141.044 166.846 140.455 166.06 139.669C165.339 139.013 164.88 138.358 164.487 137.572ZM171.235 141.896C171.038 141.896 170.907 141.765 170.907 141.568C170.907 141.437 171.038 141.241 171.169 141.241C171.563 141.241 171.89 141.241 172.283 141.175C172.676 141.11 173.004 141.044 173.331 140.913C173.528 140.848 173.659 140.913 173.724 141.11C173.79 141.241 173.724 141.437 173.593 141.503C173.2 141.634 172.807 141.699 172.414 141.765C172.021 141.83 171.628 141.896 171.235 141.896ZM165.536 132.331C165.601 132.2 165.798 132.135 165.929 132.2C166.06 132.266 166.191 132.462 166.125 132.593C165.667 133.642 165.601 134.821 165.929 135.869C166.256 136.983 166.977 138.031 167.894 138.686C168.025 138.817 168.09 139.013 167.959 139.144C167.828 139.275 167.632 139.275 167.501 139.21C166.453 138.424 165.667 137.31 165.274 136C164.946 134.821 165.012 133.511 165.536 132.331ZM159.181 128.008C159.05 128.139 158.854 128.139 158.722 128.073C158.591 127.942 158.526 127.746 158.657 127.615C158.722 127.549 158.788 127.418 158.919 127.353C159.05 127.287 159.05 127.156 159.181 127.09C159.312 126.959 159.509 126.959 159.64 127.09C159.771 127.222 159.771 127.418 159.64 127.549L159.443 127.811L159.181 128.008ZM160.819 126.763C160.622 126.828 160.491 126.763 160.36 126.632C160.295 126.501 160.295 126.304 160.491 126.239C161.277 125.846 162.129 125.715 162.981 125.715C163.832 125.715 164.749 125.977 165.536 126.304C165.798 126.435 165.994 126.566 166.256 126.697C166.453 126.828 166.715 127.025 166.911 127.156C167.042 127.287 167.042 127.484 166.977 127.615C166.846 127.746 166.649 127.746 166.518 127.615C166.322 127.484 166.125 127.353 165.929 127.222C165.732 127.09 165.536 126.959 165.339 126.894C164.618 126.566 163.898 126.37 163.112 126.37C162.26 126.239 161.474 126.435 160.819 126.763ZM167.501 128.728C167.37 128.597 167.435 128.401 167.566 128.335C167.697 128.27 167.894 128.27 168.025 128.466C168.091 128.532 168.156 128.663 168.222 128.728C168.287 128.794 168.353 128.925 168.418 129.056C168.68 129.58 168.877 130.104 169.008 130.694C169.139 131.283 169.139 131.807 169.073 132.397C169.073 132.528 168.942 132.659 168.746 132.659C168.746 132.659 168.746 132.659 168.68 132.659C168.484 132.659 168.353 132.462 168.418 132.266C168.484 131.742 168.484 131.283 168.353 130.759C168.222 130.235 168.09 129.776 167.828 129.318L167.697 129.056C167.566 128.925 167.566 128.859 167.501 128.728ZM166.453 134.297C166.453 134.1 166.584 134.035 166.78 134.035C166.977 134.035 167.108 134.231 167.108 134.428C167.042 135.214 167.239 136 167.697 136.655C168.353 137.769 169.532 138.489 170.842 138.62C171.038 138.62 171.169 138.751 171.169 138.948C171.169 139.079 171.038 139.21 170.907 139.21C170.907 139.21 170.907 139.21 170.842 139.21C170.58 139.21 170.252 139.144 169.99 139.079C169.728 139.013 169.401 138.882 169.139 138.751C168.287 138.358 167.566 137.703 167.108 136.917C166.584 136.131 166.387 135.214 166.453 134.297ZM172.48 139.013C172.283 139.079 172.152 138.948 172.087 138.817C172.021 138.686 172.087 138.489 172.218 138.424C173.004 138.162 173.659 137.638 174.052 136.917C174.117 136.786 174.314 136.721 174.511 136.786C174.642 136.852 174.707 137.048 174.642 137.245C174.38 137.638 174.117 138.031 173.724 138.293C173.397 138.62 172.938 138.882 172.48 139.013ZM159.836 129.645C159.771 129.776 159.574 129.842 159.443 129.776C159.312 129.711 159.181 129.514 159.247 129.318C159.509 128.794 159.836 128.335 160.295 127.942C160.753 127.549 161.277 127.287 161.867 127.156C162.064 127.09 162.195 127.221 162.26 127.353C162.326 127.484 162.26 127.68 162.064 127.746C161.081 128.008 160.229 128.728 159.836 129.645ZM163.701 127.68C163.505 127.615 163.374 127.484 163.439 127.287C163.439 127.156 163.57 127.025 163.767 127.025H163.832C164.029 127.09 164.225 127.09 164.422 127.156C164.618 127.222 164.815 127.287 165.011 127.418H165.077C166.125 127.942 166.977 128.859 167.435 129.907C167.894 130.956 167.894 132.135 167.435 133.183V133.248L167.37 133.314C167.239 133.445 167.042 133.379 166.911 133.248C166.78 133.183 166.78 132.986 166.846 132.855C167.239 131.938 167.239 130.956 166.846 130.104C166.453 129.187 165.732 128.401 164.815 127.942C164.684 127.877 164.487 127.811 164.356 127.746C164.16 127.746 163.963 127.746 163.701 127.68ZM162.457 129.056C162.26 129.121 162.129 128.99 162.064 128.859C161.998 128.728 162.064 128.532 162.195 128.466H162.26C162.653 128.335 162.981 128.335 163.374 128.335C163.767 128.401 164.16 128.466 164.487 128.663C165.012 128.925 165.47 129.252 165.798 129.776C166.125 130.235 166.322 130.759 166.387 131.349C166.387 131.48 166.256 131.676 166.125 131.676C165.929 131.676 165.798 131.545 165.798 131.349C165.732 130.89 165.601 130.497 165.339 130.104C165.077 129.711 164.749 129.449 164.291 129.252C164.029 129.121 163.701 129.056 163.439 128.99C163.046 128.925 162.784 128.99 162.457 129.056Z" fill="white"/>
<path d="M52.9229 93.8768L21.4123 91.6494C20.8882 91.5839 20.4951 91.2563 20.4951 90.9288V61.0559C20.4951 60.7939 20.8227 60.5319 21.2157 60.5319L52.0712 60.8594C52.5953 60.8594 53.0539 61.187 53.1194 61.58L53.7745 93.3527C53.709 93.6802 53.3814 93.8768 52.9229 93.8768Z" fill="#7FC9FF"/>
<g opacity="0.75">
<path opacity="0.75" d="M37.0692 78.2851L29.5355 77.6955C29.3389 77.6955 29.1424 77.761 29.0114 77.892C28.6838 78.1541 28.6838 78.6126 28.9459 78.8747C29.0769 79.0057 29.2734 79.1367 29.4699 79.1367L37.0037 79.7263C37.3967 79.7263 37.7243 79.3988 37.6588 79.0057C37.6588 78.6126 37.3967 78.2851 37.0692 78.2851Z" fill="white"/>
<path opacity="0.75" d="M37.1348 80.7745L29.6011 80.1849C29.208 80.1849 28.8805 80.4469 28.8149 80.84C28.8149 81.233 29.077 81.5606 29.47 81.6261L37.0038 82.2157H37.0693C37.4623 82.2157 37.7899 81.9537 37.7899 81.5606C37.7899 81.102 37.5279 80.7745 37.1348 80.7745Z" fill="white"/>
<path opacity="0.75" d="M29.3389 76.6474L36.8727 77.237H36.9382C37.3312 77.237 37.6588 76.9749 37.6588 76.5819C37.6588 76.1888 37.3967 75.8613 37.0037 75.8613L29.47 75.2717C29.0769 75.2717 28.7493 75.5337 28.6838 75.9268C28.6838 76.2543 28.9459 76.5819 29.3389 76.6474Z" fill="white"/>
<path opacity="0.75" d="M40.9344 74.6821C40.9344 73.8305 40.2793 73.1754 39.4276 73.1099L26.8496 72.1272C26.4565 72.0617 25.998 72.2582 25.7359 72.5203C25.4084 72.7823 25.2773 73.1754 25.2773 73.6339L25.6049 86.0154C25.6049 86.2775 25.8014 86.5395 26.0635 86.6706C26.129 86.6706 26.1945 86.7361 26.3255 86.7361C26.522 86.7361 26.7186 86.6706 26.8496 86.474L28.7494 84.4432L39.6242 85.2293C40.0172 85.2948 40.4758 85.0983 40.7378 84.8363C41.0654 84.5742 41.1964 84.1812 41.1964 83.7226L40.9344 74.6821ZM26.7841 73.5684L39.3621 74.5511C39.4931 74.5511 39.5587 74.6166 39.5587 74.7476L39.7552 83.8536L28.4874 82.9365C28.2908 82.9365 28.0943 83.002 27.8978 83.1985L26.9806 84.2467L26.7841 73.5684V73.2409V73.5684Z" fill="white"/>
</g>
<path opacity="0.75" d="M46.9613 82.0193C46.7648 82.0193 46.5683 81.9538 46.4372 81.7573L44.3409 79.3334L42.8341 79.2023C42.4411 79.2023 42.179 78.8748 42.2446 78.4817C42.2446 78.0887 42.5721 77.8266 42.9652 77.8921L44.7995 78.0231C44.996 78.0231 45.127 78.0887 45.258 78.2197L46.3062 79.4644L46.0442 68.9172C46.0442 68.7862 45.9131 68.6551 45.7821 68.6551L33.2041 67.6725H33.1386V67.738L33.2041 70.2274C33.2041 70.6205 32.9421 70.8825 32.549 70.8825C32.1559 70.8825 31.8939 70.6205 31.8939 70.2274L31.8284 67.738C31.8284 66.9519 32.418 66.2968 33.2041 66.2968H33.4006L45.9787 67.2794C46.7648 67.3449 47.4199 68 47.4199 68.7862L47.7474 81.1677C47.7474 81.4297 47.6164 81.6917 47.2889 81.8228C47.0923 81.9538 47.0268 82.0193 46.9613 82.0193Z" fill="white"/>
<g opacity="0.75">
<path opacity="0.75" d="M239.563 72.2582H239.366L228.098 71.603C227.116 71.4065 226.395 70.4894 226.395 69.5067C226.264 67.1483 227.181 64.8555 228.819 63.2177C229.932 62.1695 231.439 61.7109 233.012 61.9075L234.387 62.104C238.252 62.5626 241.069 66.1002 241.135 70.4239C241.135 71.0135 240.938 71.5375 240.545 71.9306C240.283 72.1926 239.89 72.3237 239.563 72.2582ZM232.356 63.2832C231.439 63.2832 230.522 63.6763 229.801 64.2659C228.426 65.6416 227.705 67.5414 227.836 69.4412C227.836 69.7688 227.967 70.0308 228.229 70.1618L239.497 70.8169H239.563C239.694 70.6859 239.694 70.5549 239.694 70.4239C239.628 66.2967 236.942 63.8073 234.191 63.4797L232.815 63.2832C232.684 63.2832 232.487 63.2832 232.356 63.2832Z" fill="white"/>
<path opacity="0.75" d="M233.929 60.2042C233.798 60.2042 233.667 60.2042 233.47 60.2042C231.177 59.9421 229.277 57.3217 229.212 54.4392C229.146 52.9325 229.736 51.4913 230.784 50.4431C231.505 49.788 232.553 49.4604 233.536 49.5915C235.829 49.8535 237.728 52.4739 237.794 55.3564C237.859 56.8631 237.27 58.3044 236.222 59.3525C235.632 59.8766 234.78 60.2042 233.929 60.2042ZM233.667 58.7629C234.256 58.8285 234.846 58.6319 235.304 58.2389C236.091 57.4527 236.484 56.4046 236.418 55.2909C236.418 53.129 235.042 51.1637 233.47 50.9017C232.881 50.8362 232.291 51.0327 231.832 51.4258C231.046 52.2119 230.653 53.2601 230.719 54.3082C230.719 56.5356 232.094 58.5009 233.667 58.7629Z" fill="white"/>
</g>
<g opacity="0.75">
<path opacity="0.75" d="M161.016 12.8401C160.819 12.8401 160.623 12.7746 160.492 12.6436L157.871 10.4817C157.74 10.3507 157.675 10.2197 157.675 10.0886L157.871 7.40271C157.871 7.27168 157.937 7.14066 158.068 7.07515L161.016 4.97881C161.212 4.71677 161.605 4.65126 161.867 4.84779C162.129 4.97881 162.26 5.30637 162.195 5.63392L161.671 12.1195C161.671 12.447 161.54 12.7091 161.212 12.8401C161.212 12.7746 161.147 12.8401 161.016 12.8401ZM158.723 9.89211L160.819 11.5954L161.278 5.96147L158.919 7.66475L158.723 9.89211Z" fill="white"/>
<path opacity="0.75" d="M147.586 13.2986C147.127 13.2986 146.734 13.1676 146.407 12.9056C145.883 12.3815 145.555 11.7264 145.621 10.9403L145.686 6.15798C145.752 5.69941 146.079 5.30634 146.538 5.30634L154.137 4.71675C154.792 4.65124 155.447 4.91328 155.906 5.37186C156.364 5.83043 156.561 6.48553 156.495 7.14064L156.037 12.0539C155.971 12.5125 155.644 12.8401 155.185 12.9056L147.913 13.3641C147.848 13.2986 147.717 13.2986 147.586 13.2986ZM146.669 6.289L146.603 10.9403C146.603 11.3988 146.734 11.7919 147.062 12.1194C147.324 12.316 147.586 12.3815 147.913 12.316L155.185 11.8574L155.578 7.00962C155.644 6.35451 155.185 5.76492 154.53 5.69941C154.465 5.69941 154.334 5.69941 154.268 5.69941L146.669 6.289Z" fill="white"/>
</g>
<path d="M38.7071 112.809L31.0423 125.518C30.5838 126.239 30.8458 127.156 31.5664 127.615C31.763 127.746 31.9595 127.811 32.2215 127.811L45.7167 129.056C46.5684 129.121 47.289 128.532 47.3545 127.68C47.3545 127.418 47.3545 127.222 47.2235 126.96L41.393 112.94C41.0655 112.154 40.2138 111.827 39.4277 112.154C39.1001 112.285 38.9036 112.482 38.7071 112.809Z" fill="#7FC9FF"/>
<path d="M39.9517 123.094L38.7725 123.029L39.2965 115.757L40.4757 115.888L39.9517 123.094Z" fill="#F2FAFB"/>
<path d="M39.8864 124.863L38.6417 124.732L38.5762 126.173L39.7554 126.304L39.8864 124.863Z" fill="#F2FAFB"/>
<path d="M199.405 111.237L103.301 102.917C102.514 102.852 101.925 102.196 101.859 101.476L101.27 33.4103C101.27 32.9517 101.597 32.5587 102.056 32.5587H102.121L198.619 27.8419C199.47 27.8419 200.125 28.497 200.191 29.2832L200.322 110.385C200.322 110.844 199.994 111.237 199.47 111.237C199.536 111.237 199.47 111.237 199.405 111.237Z" fill="#1353B9"/>
<path d="M130.749 99.1175L107.952 97.6763C107.755 97.6763 107.559 97.4797 107.559 97.2832L107.1 74.6165C107.1 74.3545 107.297 74.158 107.559 74.158H107.624L130.815 74.682C131.077 74.682 131.273 74.8786 131.273 75.1406L131.339 98.7899C131.274 98.921 131.077 99.1175 130.749 99.1175C130.815 99.1175 130.815 99.1175 130.749 99.1175Z" fill="#BFE4FF"/>
<path d="M161.932 101.672L133.959 99.5106C133.763 99.5106 133.566 99.3141 133.566 99.052L133.828 75.0751C133.828 74.8131 134.025 74.6166 134.222 74.6166H134.287L162.784 74.9441C163.046 74.9441 163.177 75.1407 163.177 75.4027L162.457 101.214C162.391 101.476 162.195 101.672 161.932 101.672Z" fill="#BFE4FF"/>
<path d="M162.915 55.2909L107.821 56.8632C107.559 56.8632 107.362 56.6667 107.362 56.4701L107.493 47.6262C107.493 47.3642 107.69 47.1676 107.952 47.1676L163.243 44.6782C163.439 44.6782 163.636 44.8748 163.636 45.0713V45.1368L163.308 54.9634C163.374 55.0944 163.177 55.2254 162.915 55.2909Z" fill="#BFE4FF"/>
<path d="M192.722 103.703L166.191 102.786C165.994 102.786 165.798 102.59 165.798 102.393L167.108 38.7823L196.063 37.079L193.116 103.31C193.181 103.507 192.985 103.703 192.722 103.703Z" fill="#7FC9FF"/>
<path d="M195.998 39.8305L167.042 40.9441L167.173 36.4894C167.173 36.2929 167.37 36.0963 167.567 36.0963L195.802 34.7861C195.998 34.7861 196.195 34.9827 196.195 35.1792V35.2447L195.998 39.8305Z" fill="#1A9FFF"/>
<path d="M162.456 71.4065L107.624 71.6031C107.362 71.6031 107.166 71.4065 107.166 71.21L107.297 59.6801C107.297 59.4181 107.493 59.2216 107.755 59.2216L162.653 58.0424C162.915 58.0424 163.112 58.2389 163.112 58.4354V58.5009L162.915 71.0135C162.981 71.1445 162.719 71.4065 162.456 71.4065Z" fill="#BFE4FF"/>
<path d="M114.372 66.2312L110.31 66.2967C110.048 66.2967 109.786 66.1002 109.786 65.8382C109.786 65.8382 109.786 65.8382 109.786 65.7727L109.852 61.58C109.852 61.2524 110.114 60.9904 110.441 60.9904L114.503 60.9249C114.765 60.9249 115.027 61.1214 115.027 61.3834V61.449L114.961 65.6416C114.961 65.9692 114.699 66.1657 114.372 66.2312Z" fill="#0094FF"/>
<path d="M163.636 41.2716L108.017 44.6127C107.755 44.6127 107.559 44.4816 107.559 44.2196C107.559 44.2196 107.559 44.2196 107.559 44.1541L107.624 40.682C107.624 40.42 107.821 40.2234 108.083 40.2234L163.767 36.4238C163.963 36.4238 164.16 36.6204 164.16 36.8169V36.8824L164.029 40.813C164.029 41.0751 163.832 41.2716 163.636 41.2716Z" fill="#1A9FFF"/>
<path d="M109.917 42.5818C109.786 42.2543 109.852 41.8612 110.179 41.6647C110.441 41.5337 110.769 41.6647 110.9 41.9267V41.9922C111.031 42.3198 110.965 42.7129 110.638 42.9094C110.376 43.0404 110.048 42.9094 109.917 42.6473C109.983 42.6473 109.983 42.5818 109.917 42.5818Z" fill="white"/>
<path d="M113.389 42.0578C113.389 42.3854 113.127 42.7129 112.8 42.7784C112.472 42.7784 112.21 42.4509 112.275 42.1888C112.275 42.1888 112.275 42.1888 112.275 42.1233C112.275 41.7958 112.538 41.4682 112.865 41.4027C113.193 41.4027 113.455 41.6648 113.389 42.0578C113.389 42.0578 113.389 41.9923 113.389 42.0578Z" fill="white"/>
<path d="M116.01 41.9267C116.01 42.3198 115.682 42.5818 115.289 42.6473C114.962 42.6473 114.634 42.3853 114.634 42.0577V41.9922C114.634 41.5992 114.962 41.2716 115.355 41.2716C115.682 41.2716 116.01 41.5336 116.01 41.8612V41.9267Z" fill="white"/>
<path d="M119.089 87.5876L109.393 87.3256C108.935 87.3256 108.542 86.9325 108.542 86.4739L108.673 78.0886C108.673 77.499 109.131 77.1059 109.721 77.0404L119.482 77.1059C119.94 77.1059 120.333 77.499 120.333 77.9576L120.202 86.5394C120.071 87.129 119.613 87.5876 119.089 87.5876Z" fill="#0094FF"/>
<path d="M117.451 82.8709C117.32 82.6088 117.058 82.4778 116.796 82.6088C116.665 82.6743 116.599 82.7399 116.534 82.8709L115.813 84.3121C115.682 84.5741 115.354 84.7052 115.092 84.5742C115.092 84.5742 115.027 84.5741 115.027 84.5086L113.324 83.1984C113.127 83.0674 112.865 83.0674 112.668 83.2639L110.965 84.8362C110.769 85.0327 110.703 85.2948 110.9 85.5568C110.965 85.6878 111.096 85.7533 111.227 85.7533L118.171 85.9499C118.302 85.9499 118.433 85.8189 118.433 85.6878V85.6223L117.451 82.8709Z" fill="white"/>
<path d="M111.948 80.9711C111.948 81.5607 111.555 82.0192 111.096 82.0192C110.507 82.1503 109.917 81.8227 109.786 81.2331C109.655 80.6435 109.983 80.0539 110.572 79.9229C111.162 79.7919 111.751 80.1194 111.882 80.709C111.948 80.7745 111.948 80.9056 111.948 80.9711Z" fill="white"/>
<path d="M148.437 87.9152L137.694 87.5876C137.235 87.5876 136.907 87.1945 136.907 86.736L137.104 77.9576C137.104 77.4335 137.497 77.0404 138.021 77.0404L148.83 77.1059C149.289 77.1059 149.617 77.4335 149.617 77.892V77.9576L149.354 86.9325C149.42 87.4566 148.961 87.9152 148.437 87.9152Z" fill="#0094FF"/>
<path d="M142.214 79.923L144.638 82.1503C144.769 82.2814 144.834 82.5434 144.638 82.6744L142.083 84.8363C141.952 84.9673 141.69 84.9673 141.559 84.8363C141.493 84.7708 141.493 84.7053 141.493 84.5742L141.624 80.1195C141.624 79.923 141.821 79.7264 142.017 79.7264C142.148 79.8575 142.214 79.8575 142.214 79.923Z" fill="white"/>
<path d="M123.412 92.1734L109.393 91.1253C109.066 91.1253 108.803 90.7977 108.869 90.4702C108.935 90.1426 109.197 89.8806 109.524 89.9461L123.478 90.9942C123.805 91.0598 124.002 91.3218 124.002 91.6493C123.936 91.9769 123.74 92.1734 123.412 92.1734Z" fill="#7FC9FF"/>
<path d="M128.194 96.1696L109.327 94.7939C109 94.7939 108.738 94.4663 108.803 94.1387C108.803 93.8112 109.131 93.5491 109.458 93.6147L128.26 94.9904C128.588 95.0559 128.784 95.3179 128.784 95.6455C128.719 95.973 128.456 96.1696 128.194 96.1696Z" fill="#7FC9FF"/>
<path d="M109 69.4413C108.672 69.3758 108.41 69.1137 108.476 68.7862C108.476 68.5241 108.738 68.2621 109 68.2621L159.181 67.869C159.509 67.869 159.771 68.1311 159.771 68.4586C159.771 68.7862 159.509 69.0482 159.181 69.0482L109 69.4413Z" fill="#7FC9FF"/>
<path d="M109.786 54.3738C109.459 54.3738 109.197 54.1117 109.197 53.7842C109.197 53.4566 109.459 53.1946 109.786 53.1946L156.495 51.0327C156.823 50.9672 157.15 51.2293 157.15 51.5568C157.216 51.8844 156.954 52.2119 156.626 52.2119C156.561 52.2119 156.561 52.2119 156.495 52.2119L109.786 54.3738Z" fill="#0094FF"/>
<path d="M109.786 50.8362C109.458 50.8362 109.196 50.5086 109.262 50.1811C109.262 49.919 109.524 49.657 109.786 49.657L136.907 48.4123C137.235 48.3468 137.497 48.6088 137.562 48.9363V49.0019C137.562 49.3294 137.3 49.5915 136.973 49.5915L109.786 50.8362Z" fill="#7FC9FF"/>
<path d="M123.281 78.8748C122.954 78.8748 122.692 78.6128 122.692 78.2852C122.692 77.9577 122.954 77.6956 123.281 77.6956L127.539 77.6301C127.867 77.6301 128.129 77.8922 128.129 78.2197C128.129 78.5473 127.867 78.8093 127.539 78.8093L123.281 78.8748Z" fill="#7FC9FF"/>
<path d="M128.653 81.6262L123.019 81.4952C122.692 81.4952 122.43 81.2331 122.43 80.9056C122.43 80.578 122.692 80.316 123.019 80.316L128.653 80.447C128.981 80.5125 129.243 80.7746 129.177 81.1021C129.177 81.3641 128.981 81.6262 128.653 81.6262Z" fill="#7FC9FF"/>
<path d="M117.778 63.0212C117.451 63.0212 117.189 62.6936 117.254 62.3661C117.254 62.104 117.516 61.842 117.778 61.842L121.381 61.6454C121.709 61.6454 121.971 61.9075 121.971 62.235C121.971 62.4971 121.774 62.7591 121.447 62.8246L117.778 63.0212Z" fill="#7FC9FF"/>
<path d="M122.43 65.5761H117.451C117.123 65.5106 116.861 65.2486 116.927 64.921C116.927 64.659 117.189 64.3969 117.451 64.3969H122.43C122.757 64.3314 123.019 64.5935 123.085 64.921C123.15 65.2486 122.888 65.5106 122.561 65.5761C122.561 65.5761 122.495 65.5761 122.43 65.5761Z" fill="#7FC9FF"/>
<path d="M132.256 65.9691L128.194 66.0346C127.932 66.0346 127.67 65.8381 127.67 65.5105L127.736 61.3178C127.736 60.9903 127.998 60.7282 128.326 60.7282L132.387 60.6627C132.649 60.6627 132.911 60.8593 132.911 61.1213V61.1868L132.846 65.3795C132.846 65.707 132.584 65.9691 132.256 65.9691Z" fill="#0094FF"/>
<path d="M135.663 62.7591C135.335 62.7591 135.073 62.4971 135.073 62.1695C135.073 61.842 135.335 61.5799 135.663 61.5799L139.266 61.3834C139.593 61.3179 139.921 61.5799 139.921 61.9075C139.987 62.235 139.724 62.5626 139.397 62.5626C139.331 62.5626 139.331 62.5626 139.266 62.5626L135.663 62.7591Z" fill="#7FC9FF"/>
<path d="M140.314 65.3141H135.335C135.008 65.2486 134.746 64.9865 134.811 64.659C134.811 64.3969 135.073 64.1349 135.335 64.1349H140.314C140.642 64.2004 140.904 64.4624 140.838 64.79C140.838 65.052 140.642 65.3141 140.314 65.3141Z" fill="#7FC9FF"/>
<path d="M149.485 65.9037L145.424 65.9692C145.162 65.9692 144.9 65.7727 144.9 65.4451L144.965 61.2525C144.965 60.9249 145.227 60.6629 145.555 60.6629L149.616 60.5974C149.878 60.5974 150.141 60.7939 150.141 61.0559V61.1214L150.075 65.3141C150.075 65.6417 149.813 65.9037 149.485 65.9037Z" fill="#0094FF"/>
<path d="M152.892 62.6937C152.565 62.6937 152.303 62.3662 152.368 62.0386C152.368 61.7766 152.63 61.5145 152.892 61.5145L156.495 61.318C156.823 61.318 157.15 61.5145 157.15 61.8421C157.15 62.1696 156.954 62.4317 156.626 62.4317L152.892 62.6937Z" fill="#7FC9FF"/>
<path d="M157.609 65.2485H152.63C152.303 65.2485 152.041 64.9865 152.041 64.6589C152.041 64.3314 152.303 64.0693 152.63 64.0693H157.609C157.936 64.1348 158.199 64.3969 158.133 64.7244C158.067 64.9865 157.871 65.2485 157.609 65.2485Z" fill="#7FC9FF"/>
<path d="M155.578 93.025L137.432 92.3699C137.104 92.3699 136.842 92.1079 136.842 91.7803C136.842 91.4528 137.104 91.1907 137.432 91.1907L155.578 91.8458C155.906 91.9114 156.168 92.1734 156.102 92.5009C156.102 92.763 155.906 93.025 155.578 93.025Z" fill="#7FC9FF"/>
<path d="M150.403 96.8247L137.235 95.9076C136.908 95.9076 136.646 95.6455 136.646 95.318C136.646 94.9904 136.908 94.7284 137.235 94.7284H137.301L150.403 95.6455C150.73 95.711 150.927 95.9731 150.927 96.3006C150.927 96.5627 150.73 96.8247 150.403 96.8247Z" fill="#7FC9FF"/>
<path d="M157.15 79.3989L153.547 79.2024C153.22 79.2024 152.958 78.9404 152.958 78.6128C152.958 78.6128 152.958 78.6128 152.958 78.5473C152.958 78.2197 153.22 77.9577 153.547 77.9577L157.15 78.1542C157.478 78.2197 157.74 78.4818 157.674 78.8093C157.74 79.1369 157.478 79.3334 157.15 79.3989Z" fill="#7FC9FF"/>
<path d="M158.657 82.0193L153.416 81.8882C153.089 81.8882 152.827 81.6917 152.761 81.3642C152.761 81.0366 152.958 80.7746 153.285 80.709H153.416L158.657 80.8401C158.985 80.8401 159.247 81.1021 159.247 81.4297C159.247 81.7572 158.985 82.0193 158.657 82.0193Z" fill="#7FC9FF"/>
<path d="M169.99 45.9884C169.663 45.9884 169.401 45.7264 169.401 45.3988C169.401 45.0713 169.663 44.8092 169.99 44.8092L178.638 44.6782C178.965 44.6782 179.227 44.9403 179.227 45.2678C179.227 45.5954 178.965 45.8574 178.638 45.8574L169.99 45.9884Z" fill="white"/>
<path d="M175.166 99.314L168.287 99.1175C167.96 99.1175 167.698 98.8554 167.698 98.5279C167.698 98.2003 167.96 97.9383 168.287 97.9383H168.353L175.166 98.1348C175.493 98.2003 175.755 98.4624 175.69 98.7899C175.755 99.052 175.493 99.314 175.166 99.314Z" fill="white"/>
<path d="M183.027 55.3565C182.699 55.3565 182.437 55.0945 182.437 54.7669C182.437 54.4393 182.699 54.1773 183.027 54.1773L191.15 53.9808C191.478 53.9808 191.74 54.2428 191.74 54.5704C191.74 54.8979 191.478 55.16 191.15 55.16L183.027 55.3565Z" fill="#1A9FFF"/>
<path d="M170.056 55.7495C169.728 55.684 169.466 55.422 169.532 55.0944C169.532 54.8324 169.794 54.5703 170.056 54.5703L178.834 54.3083C179.162 54.3738 179.424 54.6358 179.358 54.9634C179.358 55.2254 179.096 55.4875 178.834 55.4875L170.056 55.7495Z" fill="#BFE4FF"/>
<path d="M190.757 59.9422L185.975 59.8766C185.647 59.8766 185.385 59.6146 185.385 59.287C185.385 58.9595 185.647 58.6974 185.909 58.6974H185.975L190.757 58.763C191.085 58.8285 191.347 59.0905 191.281 59.4181C191.281 59.6801 191.019 59.8766 190.757 59.9422Z" fill="#BFE4FF"/>
<path d="M175.493 60.3353C175.166 60.3353 174.904 60.0732 174.904 59.7457C174.904 59.4181 175.166 59.1561 175.493 59.1561L183.027 58.9596C183.354 58.8941 183.682 59.1561 183.682 59.4837C183.747 59.8112 183.485 60.1388 183.158 60.1388C183.092 60.1388 183.092 60.1388 183.027 60.1388L175.493 60.3353Z" fill="#F2FAFF"/>
<path d="M169.597 60.4663C169.27 60.4008 169.008 60.1388 169.073 59.8112C169.073 59.5492 169.335 59.2871 169.597 59.2871L172.611 59.2216C172.938 59.2216 173.2 59.4837 173.2 59.8112C173.2 60.1388 172.938 60.4008 172.611 60.4008L169.597 60.4663Z" fill="#BFE4FF"/>
<path d="M182.699 64.5279C182.372 64.4624 182.11 64.2004 182.175 63.8728C182.175 63.6108 182.437 63.3487 182.699 63.3487L189.251 63.2177C189.578 63.2177 189.84 63.4798 189.84 63.8073C189.84 64.1349 189.578 64.3969 189.251 64.3969C188.923 64.3969 182.699 64.5279 182.699 64.5279Z" fill="#BFE4FF"/>
<path d="M175.69 64.7245C175.362 64.7245 175.1 64.4624 175.1 64.1349C175.035 63.8073 175.297 63.5453 175.624 63.4798H175.69L180.013 63.2832C180.341 63.2177 180.603 63.4798 180.669 63.8073V63.8728C180.734 64.2004 180.472 64.4624 180.145 64.5279C180.145 64.5279 180.145 64.5279 180.079 64.5279L175.69 64.7245Z" fill="#1A9FFF"/>
<path d="M169.204 64.921C168.877 64.8555 168.615 64.5934 168.68 64.2659C168.68 64.0038 168.942 63.7418 169.204 63.7418L172.742 63.6108C173.069 63.6763 173.332 63.9383 173.266 64.2659C173.266 64.5279 173.004 64.79 172.742 64.79L169.204 64.921Z" fill="#BFE4FF"/>
<path d="M184.337 70.2274H177.197C176.869 70.1619 176.607 69.8999 176.672 69.5723C176.672 69.3103 176.934 69.0482 177.197 69.0482H184.337C184.665 69.1137 184.927 69.3758 184.861 69.7033C184.861 69.9654 184.665 70.2274 184.337 70.2274Z" fill="#BFE4FF"/>
<path d="M173.921 70.2274H169.335C169.008 70.1619 168.746 69.8999 168.811 69.5723C168.811 69.3103 169.073 69.0482 169.335 69.0482H173.921C174.249 69.0482 174.511 69.3103 174.511 69.6378C174.576 69.9654 174.314 70.2274 173.921 70.2274Z" fill="#BFE4FF"/>
<path d="M184.796 75.9923C184.468 75.9268 184.206 75.6647 184.272 75.3372C184.272 75.0751 184.534 74.8131 184.796 74.8131H187.744C188.071 74.7476 188.333 75.0096 188.399 75.3372C188.464 75.6647 188.202 75.9268 187.875 75.9923C187.809 75.9923 187.809 75.9923 187.744 75.9923H184.796Z" fill="#F2FAFF"/>
<path d="M181.651 75.9923H177.786C177.459 75.9923 177.197 75.7303 177.197 75.4027C177.197 75.0752 177.459 74.8131 177.786 74.8131H181.651C181.979 74.8131 182.241 75.0752 182.241 75.4027C182.241 75.7303 181.979 75.9923 181.651 75.9923Z" fill="#BFE4FF"/>
<path d="M174.707 76.0578H169.27C168.942 76.1233 168.68 75.8613 168.615 75.5337C168.549 75.2062 168.811 74.9441 169.139 74.8786H169.27H174.707C175.035 74.9441 175.297 75.2062 175.231 75.5337C175.166 75.7957 174.969 75.9923 174.707 76.0578Z" fill="#1A9FFF"/>
<path d="M179.555 82.0193H177.983C177.655 82.0193 177.393 81.7573 177.393 81.4298C177.393 81.1022 177.655 80.8401 177.983 80.8401H179.555C179.882 80.8401 180.145 81.1022 180.145 81.4298C180.145 81.7573 179.882 82.0193 179.555 82.0193C179.555 82.0849 179.555 82.0849 179.555 82.0193Z" fill="white"/>
<path d="M186.696 82.1502L182.568 82.0847C182.241 82.0847 181.979 81.8227 181.979 81.4951C181.979 81.1676 182.241 80.9055 182.568 80.9055L186.696 80.971C187.023 81.0365 187.285 81.2986 187.22 81.6261C187.154 81.9537 186.958 82.1502 186.696 82.1502Z" fill="#BFE4FF"/>
<path d="M175.1 82.1503H169.008C168.68 82.1503 168.418 81.8883 168.418 81.5608C168.418 81.2332 168.68 80.9712 169.008 80.9712H175.1C175.428 80.9057 175.69 81.1677 175.755 81.4952C175.821 81.8228 175.559 82.0848 175.231 82.1503C175.166 82.0848 175.1 82.0848 175.1 82.1503Z" fill="#BFE4FF"/>
<path d="M189.84 88.4393L187.089 88.3738C186.761 88.3738 186.499 88.1117 186.499 87.7842C186.499 87.4566 186.761 87.1946 187.089 87.1946H189.84C190.168 87.1946 190.43 87.4566 190.43 87.7842C190.43 88.1117 190.168 88.4393 189.84 88.4393Z" fill="#BFE4FF"/>
<path d="M184.141 88.3738L179.358 88.3083C179.031 88.3083 178.769 88.0462 178.769 87.7187C178.834 87.3911 179.031 87.1291 179.358 87.1291L184.141 87.1946C184.468 87.2601 184.73 87.5222 184.665 87.8497C184.665 88.1118 184.468 88.3738 184.141 88.3738Z" fill="#1A9FFF"/>
<path d="M175.755 88.2427L168.549 88.1772C168.222 88.1117 167.959 87.8497 168.025 87.5221C168.025 87.2601 168.287 86.998 168.549 86.998L175.755 87.0636C176.083 86.998 176.345 87.2601 176.41 87.5876C176.476 87.9152 176.214 88.1772 175.886 88.2427C175.821 88.2427 175.821 88.2427 175.755 88.2427Z" fill="#F2FAFF"/>
<path d="M183.748 94.3353L176.017 94.2043C175.69 94.2043 175.428 93.9422 175.428 93.6147C175.428 93.2871 175.69 93.0251 176.017 93.0251L183.748 93.1561C184.075 93.1561 184.337 93.4182 184.337 93.7457C184.337 94.0733 184.075 94.3353 183.748 94.3353Z" fill="#BFE4FF"/>
<path d="M172.283 94.0732L168.222 94.0077C167.894 94.0732 167.632 93.8112 167.567 93.4836C167.501 93.156 167.763 92.894 168.091 92.8285H168.222L172.283 92.894C172.611 92.894 172.873 93.156 172.873 93.4836C172.873 93.8112 172.611 94.0732 172.283 94.0732Z" fill="#BFE4FF"/>
<path d="M170.252 50.6397C169.925 50.5742 169.663 50.3121 169.728 49.9846C169.728 49.7225 169.99 49.4605 170.252 49.4605L176.804 49.3295C177.131 49.3295 177.393 49.5915 177.393 49.9191C177.393 50.2466 177.131 50.5087 176.804 50.5087L170.252 50.6397Z" fill="#1A9FFF"/>
<path d="M179.555 50.6397C179.227 50.6397 178.965 50.3777 178.965 50.0501C178.9 49.7226 179.162 49.4605 179.49 49.395L183.944 49.1985C184.272 49.1985 184.534 49.4605 184.599 49.7881C184.599 50.1156 184.337 50.3777 184.01 50.3777L179.555 50.6397Z" fill="#BFE4FF"/>
<path d="M187.154 50.5086C186.827 50.5086 186.565 50.2465 186.565 49.919C186.499 49.5914 186.761 49.3294 187.089 49.2639L191.019 49.0674C191.347 49.0018 191.674 49.2639 191.674 49.5914C191.74 49.919 191.478 50.2465 191.15 50.2465C191.085 50.2465 191.085 50.2465 191.019 50.2465L187.154 50.5086Z" fill="#BFE4FF"/>
<path d="M171.301 39.1753H171.235L170.056 38.5857C169.99 38.5857 169.99 38.5202 169.99 38.4547C169.99 38.3892 169.99 38.3237 170.056 38.3237L171.301 37.4066C171.366 37.341 171.497 37.341 171.563 37.4066C171.628 37.4721 171.628 37.6031 171.497 37.6031L170.449 38.3237L171.366 38.7823C171.432 38.8478 171.497 38.9133 171.432 38.9788C171.432 39.1098 171.366 39.1753 171.301 39.1753Z" fill="white"/>
<path d="M174.511 39.1754C174.445 39.1754 174.38 39.1754 174.38 39.1098C174.314 39.0443 174.314 38.9133 174.445 38.9133L175.493 38.1927L174.576 37.7341C174.511 37.6686 174.445 37.6031 174.511 37.5376C174.576 37.4721 174.642 37.4066 174.707 37.4721L175.886 38.0617C175.952 38.0617 175.952 38.1272 175.952 38.1927C175.952 38.2582 175.952 38.3237 175.886 38.3237L174.642 39.2409C174.576 39.1754 174.511 39.1754 174.511 39.1754Z" fill="white"/>
<path d="M172.283 39.4374H172.218C172.152 39.3719 172.152 39.3064 172.218 39.2409L173.79 37.0791C173.855 37.0135 173.921 37.0135 173.986 37.0135C174.052 37.0791 174.052 37.1446 174.052 37.2101L172.48 39.3719C172.349 39.4374 172.283 39.503 172.283 39.4374Z" fill="white"/>
<path d="M95.0385 100.621L90.5531 107.566C90.336 108 90.4807 108.506 90.9148 108.723C91.0595 108.796 91.1318 108.796 91.2765 108.796L99.958 109.447C100.392 109.447 100.754 109.157 100.754 108.723C100.754 108.579 100.754 108.434 100.681 108.289L96.4854 100.693C96.2684 100.259 95.6896 100.114 95.2555 100.331C95.1832 100.476 95.1108 100.548 95.0385 100.621Z" fill="#FF7648"/>
<path d="M96.0513 106.408L95.3279 106.336L95.4002 102.429L96.1237 102.502L96.0513 106.408Z" fill="#FFD9CC"/>
<path d="M96.0512 107.277L95.3277 107.204L95.2554 108L96.0512 108.072V107.277Z" fill="#FFD9CC"/>
<path d="M90.0466 85.0665C87.2252 82.8238 85.8506 79.2065 86.2847 75.6616C87.1528 75.4445 88.6721 75.0105 89.3232 74.3594C90.2637 73.2018 90.8424 71.8273 90.9871 70.308C91.4935 66.2567 90.336 62.133 87.8039 58.9498C86.5741 57.3582 84.7654 55.9836 82.8121 55.839C81.5822 55.4049 80.28 55.6943 79.3395 56.5624C78.4714 57.4306 77.8926 58.5881 77.6756 59.8179C77.3139 61.6989 77.2415 63.6523 77.4586 65.5332C77.6032 67.5589 78.1097 69.5846 79.0502 71.4656C79.7013 72.7678 80.7141 73.9253 81.944 74.7211C81.3652 78.1937 80.6417 80.7258 77.2415 82.462C73.4796 84.4154 70.007 89.6966 66.1003 88.2497C68.7771 91.1435 77.6032 102.285 81.5099 103.008C88.8168 104.383 92.1447 93.6032 99.0175 96.4247C96.3407 92.0116 94.315 88.1773 90.0466 85.0665Z" fill="#B86633"/>
<path d="M88.1657 59.3115C91.4936 56.273 90.3361 53.2345 88.8892 50.1237C88.0934 48.6768 87.2252 47.3022 86.2124 46C86.2124 46 84.9102 50.1237 84.3314 50.6301C82.8122 52.1494 81.2206 52.6558 78.3991 54.0303C74.4201 55.4049 70.8028 58.0817 70.0794 59.818C67.4026 66.5461 75.867 67.4142 79.2672 73.4189C79.4843 73.9976 79.7737 74.5764 80.1354 74.5764L81.5099 74.5041C81.5099 74.5041 84.8378 74.287 84.9825 72.7678C85.0549 71.8996 84.6931 69.1505 83.3909 68.0653C83.3186 67.993 83.2462 67.9206 83.1739 67.7759C83.2462 67.4142 83.3186 67.0525 83.3186 66.6908C83.3186 66.6908 83.608 66.9078 84.1144 66.4014L82.6675 61.7713C84.7655 61.4819 86.6465 60.6138 88.1657 59.3115Z" fill="#333332"/>
<path d="M84.1869 65.5331C83.1741 65.0267 81.9442 65.4608 81.4378 66.4736C81.4378 66.5459 81.3655 66.5459 81.3655 66.6183C81.0037 67.7758 81.5825 68.9333 82.6677 69.4398C83.7529 69.8738 84.9827 69.5121 85.7062 68.5716" fill="#B86633"/>
<path d="M98.077 139.109C94.1703 138.819 82.7398 143.739 78.1097 144.896C73.8413 142.364 68.4154 143.16 65.0152 146.705C63.8576 146.632 62.6278 146.56 61.4702 146.488L61.3979 145.692C60.8915 148.586 59.6616 150.25 60.4574 155.603C60.5298 155.965 60.8915 158.208 60.8915 158.208L62.049 161.319V170H79.7736L79.846 169.711L79.9183 170H98.4387L98.294 163.489C98.294 154.518 99.0175 144.896 98.077 139.109Z" fill="#000B4F"/>
<path d="M102.562 105.54C105.818 101.561 105.89 95.846 102.779 91.7223C102.779 90.9265 102.852 90.1307 102.852 89.4072C102.852 89.1902 96.2683 84.4154 86.357 82.8961C84.4037 82.5344 82.4504 82.3174 80.4247 82.3174C77.2415 82.3174 67.1855 84.2707 64.2193 90.203C59.5169 99.6079 56.406 138.096 56.5507 147.645C56.5507 148.875 57.5636 149.888 58.7934 149.96L100.464 151.407C101.55 151.48 102.49 150.539 102.562 149.454C102.562 149.382 102.562 149.309 102.562 149.237C101.911 141.496 102.49 119.431 102.562 105.54Z" fill="#1AABC0"/>
<path d="M117.827 109.953C115.585 107.927 113.487 105.685 111.461 103.514C109.435 101.344 107.554 98.9566 105.673 96.6415C103.792 94.3265 101.984 91.9391 100.32 89.407C98.5834 86.8749 97.1365 84.1258 95.9067 81.3043C95.5449 80.5085 95.9067 79.568 96.7025 79.2787H96.7748C97.2812 79.0616 97.7876 79.134 98.2217 79.4233C100.754 81.0873 103.141 83.0406 105.384 85.211C107.554 87.309 109.58 89.5517 111.533 91.8667C113.487 94.1818 115.368 96.4968 117.249 98.8842C119.13 101.272 120.866 103.731 122.385 106.336C123.253 107.71 122.747 109.519 121.372 110.387C120.215 110.894 118.768 110.821 117.827 109.953Z" fill="#007A8A"/>
<path d="M92.1449 77.6872L91.7832 72.2613C91.7108 71.8272 92.0726 71.3931 92.5066 71.3931C92.8684 71.3931 93.1577 71.5378 93.3024 71.8272L95.6898 76.7467C96.1239 77.6872 95.7622 78.8447 94.8217 79.2788C93.8812 79.7128 92.7237 79.3511 92.2896 78.4106C92.2173 78.1212 92.1449 77.9042 92.1449 77.6872Z" fill="#B86633"/>
<path d="M104.009 108.434L98.5835 109.157C98.1494 109.23 97.7153 108.868 97.7153 108.434C97.7153 108.145 97.86 107.783 98.0771 107.638L102.852 104.889C103.792 104.383 104.878 104.672 105.384 105.612C105.89 106.553 105.601 107.638 104.66 108.145C104.443 108.362 104.226 108.434 104.009 108.434Z" fill="#B86633"/>
<path d="M99.1618 87.1644C101.405 88.3943 103.503 89.7688 105.601 91.2881C107.699 92.735 109.724 94.3266 111.678 95.9182C113.703 97.5098 115.657 99.1737 117.465 100.982C118.406 101.923 119.346 102.863 120.142 103.876C121.01 104.889 121.878 105.974 122.602 107.059C123.325 108.145 123.036 109.591 121.951 110.315C121.444 110.604 120.938 110.749 120.359 110.677C118.984 110.46 117.682 110.17 116.38 109.808C115.078 109.447 113.848 109.085 112.618 108.651C110.158 107.783 107.843 106.698 105.528 105.612C103.213 104.527 100.898 103.37 98.6554 102.14C96.4127 100.91 94.2423 99.6078 92.1443 98.1609C89.1058 96.1352 88.3824 92.0115 90.408 89.0454C92.3614 86.2962 96.1957 85.4281 99.1618 87.1644Z" fill="#1AABC0"/>
<path d="M89.251 84.3431C87.5147 82.5344 86.4295 80.2194 86.2848 77.7596H81.293C80.7142 79.8577 79.195 81.6663 77.2416 82.6068C76.3011 83.1132 75.433 83.692 74.6372 84.3431H89.251Z" fill="#1AABC0"/>
</svg>
